<svg width="25" height="25" viewBox="0 0 25 25" fill="none" xmlns="http://www.w3.org/2000/svg">
<path d="M15.6484 1.48914H8.96044C4.73215 1.48914 1.30444 4.91684 1.30444 9.14514V15.8331C1.30444 20.0614 4.73215 23.4891 8.96044 23.4891H15.6484C19.8767 23.4891 23.3044 20.0614 23.3044 15.8331V9.14514C23.3044 4.91684 19.8767 1.48914 15.6484 1.48914Z" fill="#F8DE40"/>
<path d="M23.3043 14.4271C21.9446 16.4634 20.0974 18.1275 17.9308 19.2681C15.7641 20.4087 13.3467 20.9897 10.8983 20.9581C5.35635 20.9581 4.33535 19.9581 1.75635 18.4291C2.29107 19.911 3.26968 21.1919 4.55884 22.0974C5.84799 23.0029 7.38497 23.4889 8.96035 23.4891H15.6483C17.6788 23.4891 19.6262 22.6825 21.062 21.2467C22.4977 19.811 23.3043 17.8636 23.3043 15.8331V14.4271Z" fill="#E7C930"/>
<path d="M9.86937 9.00219C8.46198 8.46145 7.13741 7.72595 5.93437 6.81719C5.8582 6.76 5.76779 6.72482 5.67299 6.71551C5.5782 6.70619 5.48266 6.72309 5.39682 6.76436C5.31097 6.80563 5.23811 6.86969 5.18619 6.94955C5.13426 7.0294 5.10527 7.12199 5.10237 7.21719C5.05437 8.80019 5.25337 11.7002 7.36037 11.7002C8.01344 11.7728 8.66979 11.5955 9.19742 11.2039C9.72504 10.8122 10.0848 10.2353 10.2044 9.58919C10.2283 9.46743 10.2076 9.34114 10.1461 9.23337C10.0846 9.12561 9.98636 9.04355 9.86937 9.00219ZM19.5044 7.22019C19.5011 7.12514 19.4719 7.03279 19.4199 6.95315C19.3679 6.87351 19.2951 6.80962 19.2094 6.76841C19.1237 6.7272 19.0283 6.71024 18.9337 6.71937C18.839 6.7285 18.7486 6.76336 18.6724 6.82019C17.4693 7.72895 16.1448 8.46445 14.7374 9.00519C14.6214 9.04686 14.5241 9.1286 14.463 9.23568C14.4019 9.34276 14.3811 9.46814 14.4044 9.58919C14.5241 10.2344 14.8834 10.8104 15.4101 11.2017C15.9369 11.5931 16.5921 11.7708 17.2444 11.6992C19.3554 11.7032 19.5544 8.80319 19.5044 7.22019ZM14.3044 14.4262C14.2624 14.4255 14.2209 14.4166 14.1823 14.3998C14.1438 14.383 14.109 14.3588 14.0799 14.3285C14.0508 14.2982 14.028 14.2624 14.0128 14.2232C13.9976 14.184 13.9903 14.1422 13.9914 14.1002C13.9841 13.612 13.8074 13.1414 13.4914 12.7692C13.3333 12.6202 13.1465 12.505 12.9424 12.4306C12.7384 12.3561 12.5213 12.324 12.3044 12.3362C12.0877 12.3236 11.8707 12.3552 11.6667 12.4292C11.4626 12.5031 11.2757 12.6178 11.1174 12.7662C10.7995 13.1389 10.6226 13.6114 10.6174 14.1012C10.619 14.1861 10.5868 14.2681 10.5279 14.3292C10.469 14.3904 10.3882 14.4256 10.3034 14.4272C10.2185 14.4288 10.1365 14.3966 10.0753 14.3377C10.0142 14.2788 9.97896 14.1981 9.97737 14.1132C9.97837 13.4532 10.2197 12.8161 10.6564 12.3212C10.8735 12.1096 11.1319 11.9449 11.4154 11.8374C11.6989 11.7299 12.0015 11.6818 12.3044 11.6962C12.6071 11.6819 12.9095 11.7301 13.1928 11.8376C13.4761 11.9451 13.7343 12.1097 13.9514 12.3212C14.3875 12.8164 14.6288 13.4533 14.6304 14.1132C14.6283 14.1978 14.5928 14.2782 14.5318 14.3368C14.4707 14.3954 14.389 14.4275 14.3044 14.4262Z" fill="#864E20"/>
</svg>