<svg width="25" height="25" viewBox="0 0 25 25" fill="none" xmlns="http://www.w3.org/2000/svg">
<path d="M15.7256 1.48914H9.03759C4.8093 1.48914 1.38159 4.91684 1.38159 9.14514V15.8331C1.38159 20.0614 4.8093 23.4891 9.03759 23.4891H15.7256C19.9539 23.4891 23.3816 20.0614 23.3816 15.8331V9.14514C23.3816 4.91684 19.9539 1.48914 15.7256 1.48914Z" fill="#F8DE40"/>
<path d="M7.4365 7.80213C7.09085 7.80173 6.75285 7.90388 6.46527 8.09564C6.17769 8.28741 5.95347 8.56018 5.82096 8.87942C5.68846 9.19867 5.65363 9.55004 5.7209 9.88909C5.78816 10.2281 5.95449 10.5396 6.19883 10.7841C6.44317 11.0286 6.75455 11.1951 7.09355 11.2625C7.43256 11.33 7.78396 11.2954 8.10328 11.163C8.4226 11.0307 8.69549 10.8067 8.88742 10.5192C9.07936 10.2317 9.1817 9.89378 9.1815 9.54813C9.18124 9.08531 8.99733 8.64151 8.67017 8.31416C8.34301 7.98681 7.89931 7.80265 7.4365 7.80213Z" fill="white"/>
<path d="M7.43648 7.80212C7.26381 7.80212 7.09503 7.85332 6.95146 7.94925C6.8079 8.04518 6.69601 8.18152 6.62993 8.34104C6.56385 8.50056 6.54657 8.67609 6.58025 8.84544C6.61394 9.01478 6.69708 9.17034 6.81917 9.29243C6.94126 9.41452 7.09682 9.49766 7.26616 9.53135C7.43551 9.56503 7.61104 9.54775 7.77056 9.48167C7.93008 9.4156 8.06642 9.3037 8.16235 9.16014C8.25828 9.01657 8.30948 8.84779 8.30948 8.67512C8.30948 8.44359 8.2175 8.22154 8.05378 8.05782C7.89006 7.8941 7.66801 7.80212 7.43648 7.80212Z" fill="#864E20"/>
<path d="M23.3815 14.4271C22.0217 16.4634 20.1746 18.1275 18.0079 19.2681C15.8412 20.4087 13.4238 20.9897 10.9755 20.9581C5.4335 20.9581 4.4125 19.9581 1.8335 18.4291C2.36822 19.911 3.34683 21.1919 4.63598 22.0974C5.92513 23.0029 7.46212 23.4889 9.0375 23.4891H15.7255C17.756 23.4891 19.7033 22.6825 21.1391 21.2467C22.5749 19.811 23.3815 17.8636 23.3815 15.8331V14.4271Z" fill="#E7C930"/>
<path d="M14.0906 13.5521H10.6726C10.3846 13.5521 10.1516 13.6911 10.1516 13.8641C10.1516 14.0371 10.3846 14.1761 10.6726 14.1761H14.0906C14.3786 14.1761 14.6116 14.0371 14.6116 13.8641C14.6116 13.6911 14.3816 13.5521 14.0906 13.5521Z" fill="#864E20"/>
<path d="M17.3396 7.80213C16.9939 7.80114 16.6556 7.90278 16.3676 8.09419C16.0796 8.28559 15.8549 8.55815 15.722 8.87734C15.589 9.19653 15.5538 9.54801 15.6207 9.88725C15.6876 10.2265 15.8537 10.5382 16.0979 10.783C16.3421 11.0278 16.6535 11.1946 16.9926 11.2623C17.3317 11.33 17.6832 11.2956 18.0027 11.1633C18.3222 11.0311 18.5953 10.807 18.7874 10.5195C18.9794 10.232 19.0818 9.89391 19.0816 9.54813C19.0814 9.08584 18.8979 8.64249 18.5714 8.31523C18.2449 7.98796 17.8019 7.80345 17.3396 7.80213Z" fill="white"/>
<path d="M17.3386 7.80212C17.1659 7.80232 16.9972 7.85369 16.8538 7.94974C16.7104 8.04578 16.5986 8.1822 16.5327 8.34173C16.4668 8.50127 16.4497 8.67677 16.4834 8.84605C16.5172 9.01533 16.6005 9.17079 16.7226 9.29278C16.8447 9.41477 17.0003 9.49782 17.1696 9.53142C17.3389 9.56503 17.5144 9.54768 17.6739 9.48158C17.8333 9.41547 17.9696 9.30358 18.0655 9.16003C18.1614 9.01649 18.2126 8.84774 18.2126 8.67512C18.2126 8.5604 18.1899 8.44679 18.146 8.34081C18.1021 8.23483 18.0377 8.13854 17.9565 8.05747C17.8753 7.97639 17.779 7.9121 17.6729 7.86829C17.5669 7.82448 17.4533 7.80199 17.3386 7.80212Z" fill="#864E20"/>
</svg>