<svg width="25" height="25" viewBox="0 0 25 25" fill="none" xmlns="http://www.w3.org/2000/svg">
<path d="M16.2647 1.48914H9.57665C5.34836 1.48914 1.92065 4.91684 1.92065 9.14514V15.8331C1.92065 20.0614 5.34836 23.4891 9.57665 23.4891H16.2647C20.4929 23.4891 23.9207 20.0614 23.9207 15.8331V9.14514C23.9207 4.91684 20.4929 1.48914 16.2647 1.48914Z" fill="#F8DE40"/>
<path d="M9.8277 10.3331C9.82676 10.3714 9.81376 10.4085 9.79054 10.4389C9.76732 10.4694 9.73507 10.4918 9.69838 10.5029C9.6617 10.514 9.62245 10.5132 9.58624 10.5007C9.55002 10.4881 9.51869 10.4645 9.4967 10.4331C9.34698 10.2079 9.15348 10.015 8.9277 9.86611C8.64391 9.67768 8.31084 9.57718 7.9702 9.57718C7.62955 9.57718 7.29648 9.67768 7.0127 9.86611C6.786 10.0154 6.59178 10.2089 6.4417 10.4351C6.41971 10.4665 6.38837 10.4901 6.35215 10.5027C6.31594 10.5152 6.27669 10.516 6.24001 10.5049C6.20332 10.4938 6.17107 10.4714 6.14785 10.4409C6.12463 10.4105 6.11163 10.3734 6.1107 10.3351C6.10659 9.96472 6.22861 9.60396 6.4567 9.31211C6.63706 9.08344 6.8669 8.89863 7.12896 8.77157C7.39101 8.6445 7.67846 8.57849 7.9697 8.57849C8.26093 8.57849 8.54838 8.6445 8.81043 8.77157C9.07249 8.89863 9.30234 9.08344 9.4827 9.31211C9.70943 9.60386 9.831 9.96363 9.8277 10.3331ZM19.7307 10.3331C19.7298 10.3714 19.7168 10.4085 19.6935 10.4389C19.6703 10.4694 19.6381 10.4918 19.6014 10.5029C19.5647 10.514 19.5255 10.5132 19.4892 10.5007C19.453 10.4881 19.4217 10.4645 19.3997 10.4331C19.2501 10.2081 19.0569 10.0153 18.8317 9.86611C18.5478 9.6776 18.2145 9.57704 17.8737 9.57704C17.5329 9.57704 17.1996 9.6776 16.9157 9.86611C16.689 10.0154 16.4948 10.2089 16.3447 10.4351C16.3227 10.4665 16.2914 10.4901 16.2552 10.5027C16.2189 10.5152 16.1797 10.516 16.143 10.5049C16.1063 10.4938 16.0741 10.4714 16.0509 10.4409C16.0276 10.4105 16.0146 10.3734 16.0137 10.3351C16.0096 9.96472 16.1316 9.60396 16.3597 9.31211C16.5401 9.08344 16.7699 8.89863 17.032 8.77157C17.294 8.6445 17.5815 8.57849 17.8727 8.57849C18.1639 8.57849 18.4514 8.6445 18.7134 8.77157C18.9755 8.89863 19.2053 9.08344 19.3857 9.31211C19.6124 9.60386 19.734 9.96363 19.7307 10.3331Z" fill="#864E20"/>
<path d="M23.9206 14.4271C22.5608 16.4634 20.7136 18.1275 18.547 19.2681C16.3803 20.4087 13.9629 20.9897 11.5146 20.9581C5.97256 20.9581 4.95156 19.9581 2.37256 18.4291C2.90728 19.911 3.8859 21.1919 5.17505 22.0974C6.4642 23.0029 8.00118 23.4889 9.57656 23.4891H16.2646C18.2951 23.4891 20.2424 22.6825 21.6782 21.2467C23.1139 19.811 23.9206 17.8636 23.9206 15.8331V14.4271Z" fill="#E7C930"/>
<path d="M8.22057 15.8421C8.22057 15.8421 11.9706 13.7171 14.8456 13.5301C17.7206 13.3431 18.7516 13.7491 17.5016 14.0301C16.2516 14.3111 14.5956 13.8741 12.0176 14.7641C9.43957 15.6541 7.48957 16.3741 8.22057 15.8421Z" fill="#864E20"/>
<path d="M14.5056 15.1032C13.1216 15.0132 11.0316 16.4602 11.0316 16.4602C10.6046 16.8392 11.6316 16.4082 12.9856 15.8882C14.3396 15.3682 15.0516 15.8732 15.6856 15.7472C16.3196 15.6212 15.8906 15.1892 14.5056 15.1032Z" fill="#E7C930"/>
</svg>