<svg width="25" height="25" viewBox="0 0 25 25" fill="none" xmlns="http://www.w3.org/2000/svg">
<path d="M16.2903 1.41565H9.60229C5.374 1.41565 1.94629 4.84336 1.94629 9.07165V15.7596C1.94629 19.9879 5.374 23.4156 9.60229 23.4156H16.2903C20.5186 23.4156 23.9463 19.9879 23.9463 15.7596V9.07165C23.9463 4.84336 20.5186 1.41565 16.2903 1.41565Z" fill="#F8DE40"/>
<path d="M9.85333 10.2596C9.8524 10.2979 9.83939 10.335 9.81617 10.3655C9.79295 10.3959 9.7607 10.4183 9.72402 10.4294C9.68733 10.4405 9.64809 10.4397 9.61187 10.4272C9.57566 10.4147 9.54432 10.391 9.52233 10.3596C9.37262 10.1344 9.17911 9.94154 8.95333 9.79262C8.66955 9.6042 8.33647 9.50369 7.99583 9.50369C7.65519 9.50369 7.32211 9.6042 7.03833 9.79262C6.81163 9.94191 6.61742 10.1354 6.46733 10.3616C6.44534 10.393 6.414 10.4167 6.37779 10.4292C6.34157 10.4417 6.30233 10.4425 6.26564 10.4314C6.22896 10.4203 6.19671 10.3979 6.17349 10.3675C6.15027 10.337 6.13726 10.2999 6.13633 10.2616C6.13223 9.89124 6.25425 9.53048 6.48233 9.23862C6.66269 9.00996 6.89254 8.82515 7.15459 8.69808C7.41665 8.57102 7.70409 8.505 7.99533 8.505C8.28657 8.505 8.57401 8.57102 8.83607 8.69808C9.09812 8.82515 9.32797 9.00996 9.50833 9.23862C9.73506 9.53037 9.85663 9.89014 9.85333 10.2596ZM19.7563 10.2596C19.7554 10.2979 19.7424 10.335 19.7192 10.3655C19.696 10.3959 19.6637 10.4183 19.627 10.4294C19.5903 10.4405 19.5511 10.4397 19.5149 10.4272C19.4787 10.4147 19.4473 10.391 19.4253 10.3596C19.2757 10.1346 19.0826 9.94186 18.8573 9.79262C18.5734 9.60411 18.2401 9.50356 17.8993 9.50356C17.5585 9.50356 17.2253 9.60411 16.9413 9.79262C16.7146 9.94191 16.5204 10.1354 16.3703 10.3616C16.3483 10.393 16.317 10.4167 16.2808 10.4292C16.2446 10.4417 16.2053 10.4425 16.1686 10.4314C16.132 10.4203 16.0997 10.3979 16.0765 10.3675C16.0533 10.337 16.0403 10.2999 16.0393 10.2616C16.0352 9.89124 16.1572 9.53048 16.3853 9.23862C16.5657 9.00996 16.7955 8.82515 17.0576 8.69808C17.3196 8.57102 17.6071 8.505 17.8983 8.505C18.1896 8.505 18.477 8.57102 18.7391 8.69808C19.0011 8.82515 19.231 9.00996 19.4113 9.23862C19.6381 9.53037 19.7596 9.89014 19.7563 10.2596Z" fill="#864E20"/>
<path d="M23.9462 14.3536C22.5864 16.3899 20.7393 18.054 18.5726 19.1946C16.4059 20.3353 13.9885 20.9162 11.5402 20.8846C5.99819 20.8846 4.97719 19.8846 2.39819 18.3556C2.93292 19.8375 3.91153 21.1184 5.20068 22.0239C6.48983 22.9294 8.02682 23.4154 9.60219 23.4156H16.2902C18.3207 23.4156 20.268 22.609 21.7038 21.1732C23.1396 19.7375 23.9462 17.7901 23.9462 15.7596V14.3536Z" fill="#E7C930"/>
<path d="M17.6123 12.9987H8.28029C8.21111 12.9984 8.14265 13.0128 8.07937 13.0407C8.01609 13.0687 7.95941 13.1097 7.913 13.161C7.8666 13.2123 7.83151 13.2728 7.81003 13.3385C7.78854 13.4043 7.78113 13.4738 7.78829 13.5427C7.91129 14.7177 8.66329 17.3847 12.9463 17.3847C17.2293 17.3847 17.9813 14.7177 18.1043 13.5427C18.1114 13.4738 18.104 13.4043 18.0826 13.3385C18.0611 13.2728 18.026 13.2123 17.9796 13.161C17.9332 13.1097 17.8765 13.0687 17.8132 13.0407C17.7499 13.0128 17.6815 12.9984 17.6123 12.9987Z" fill="#864E20"/>
<path d="M12.9463 17.3846C13.9659 17.4182 14.9793 17.2127 15.9053 16.7846C15.6278 16.3546 15.1944 16.0489 14.6963 15.9316C13.3523 15.6316 12.9463 16.0406 12.9463 16.0406C12.9463 16.0406 12.5403 15.6346 11.1963 15.9316C10.6982 16.0489 10.2649 16.3546 9.9873 16.7846C10.9133 17.2127 11.9267 17.4182 12.9463 17.3846Z" fill="#F06880"/>
</svg>