<svg width="25" height="25" viewBox="0 0 25 25" fill="none" xmlns="http://www.w3.org/2000/svg">
<path d="M16.0178 1.41565H9.32983C5.10154 1.41565 1.67383 4.84336 1.67383 9.07165V15.7596C1.67383 19.9879 5.10154 23.4156 9.32983 23.4156H16.0178C20.2461 23.4156 23.6738 19.9879 23.6738 15.7596V9.07165C23.6738 4.84336 20.2461 1.41565 16.0178 1.41565Z" fill="#F8DE40"/>
<path d="M7.72874 7.72864C7.38309 7.72825 7.04508 7.8304 6.75751 8.02216C6.46993 8.21393 6.2457 8.48669 6.1132 8.80594C5.98069 9.12519 5.94587 9.47656 6.01313 9.81561C6.0804 10.1547 6.24672 10.4661 6.49107 10.7106C6.73541 10.9551 7.04679 11.1216 7.38579 11.1891C7.7248 11.2565 8.07619 11.2219 8.39552 11.0896C8.71484 10.9572 8.98773 10.7332 9.17966 10.4457C9.37159 10.1582 9.47393 9.8203 9.47374 9.47464C9.47347 9.01183 9.28957 8.56803 8.96241 8.24068C8.63524 7.91333 8.19155 7.72917 7.72874 7.72864ZM17.6317 7.72864C17.286 7.72766 16.9477 7.8293 16.6597 8.0207C16.3717 8.21211 16.147 8.48466 16.0141 8.80386C15.8811 9.12305 15.8458 9.47452 15.9128 9.81376C15.9797 10.153 16.1458 10.4648 16.39 10.7095C16.6342 10.9543 16.9456 11.1211 17.2847 11.1888C17.6238 11.2565 17.9753 11.2221 18.2948 11.0898C18.6143 10.9576 18.8874 10.7335 19.0795 10.446C19.2715 10.1585 19.3739 9.82042 19.3737 9.47464C19.3735 9.01235 19.19 8.56901 18.8635 8.24174C18.537 7.91447 18.094 7.72997 17.6317 7.72864Z" fill="#864E20"/>
<path d="M23.6737 14.3536C22.314 16.3899 20.4668 18.054 18.3001 19.1946C16.1335 20.3353 13.7161 20.9162 11.2677 20.8846C5.72573 20.8846 4.70473 19.8846 2.12573 18.3556C2.66046 19.8375 3.63907 21.1184 4.92822 22.0239C6.21737 22.9294 7.75436 23.4154 9.32973 23.4156H16.0177C18.0482 23.4156 19.9956 22.609 21.4313 21.1732C22.8671 19.7375 23.6737 17.7901 23.6737 15.7596V14.3536Z" fill="#E7C930"/>
<path d="M17.2738 12.6657C15.8906 13.5137 14.2961 13.9543 12.6738 13.9367C11.0514 13.9543 9.45697 13.5137 8.07376 12.6657C8.07376 12.6657 7.62276 12.3927 7.90476 12.9387C8.18676 13.4847 9.77176 13.8687 9.78676 14.0717C10.6236 14.6906 11.6369 15.0246 12.6778 15.0246C13.7186 15.0246 14.7319 14.6906 15.5688 14.0717C15.5838 13.8717 17.1688 13.4857 17.4508 12.9387C17.7328 12.3917 17.2738 12.6657 17.2738 12.6657Z" fill="#864E20"/>
<path d="M15.0958 15.3766C14.3609 15.8061 13.525 16.0325 12.6738 16.0325C11.8226 16.0325 10.9867 15.8061 10.2518 15.3766C9.82777 15.1486 9.77577 15.5406 10.6038 16.0326C11.2221 16.4337 11.9373 16.6603 12.6738 16.6886C13.4102 16.6603 14.1254 16.4337 14.7438 16.0326C15.5738 15.5406 15.5198 15.1486 15.0958 15.3766Z" fill="#E7C930"/>
</svg>