<svg width="25" height="25" viewBox="0 0 25 25" fill="none" xmlns="http://www.w3.org/2000/svg">
<path d="M16.0945 1.41565H9.40649C5.1782 1.41565 1.75049 4.84336 1.75049 9.07165V15.7596C1.75049 19.9879 5.1782 23.4156 9.40649 23.4156H16.0945C20.3228 23.4156 23.7505 19.9879 23.7505 15.7596V9.07165C23.7505 4.84336 20.3228 1.41565 16.0945 1.41565Z" fill="#F8DE40"/>
<path d="M7.8054 7.72864C7.45975 7.72825 7.12174 7.8304 6.83417 8.02216C6.54659 8.21393 6.32236 8.48669 6.18986 8.80594C6.05736 9.12519 6.02253 9.47656 6.08979 9.81561C6.15706 10.1547 6.32339 10.4661 6.56773 10.7106C6.81207 10.9551 7.12345 11.1216 7.46245 11.1891C7.80146 11.2565 8.15285 11.2219 8.47218 11.0896C8.7915 10.9572 9.06439 10.7332 9.25632 10.4457C9.44825 10.1582 9.55059 9.8203 9.5504 9.47464C9.55013 9.01183 9.36623 8.56803 9.03907 8.24068C8.7119 7.91333 8.26821 7.72917 7.8054 7.72864ZM17.7084 7.72864C17.3626 7.72766 17.0243 7.8293 16.7364 8.0207C16.4484 8.21211 16.2237 8.48466 16.0907 8.80386C15.9578 9.12305 15.9225 9.47452 15.9894 9.81376C16.0564 10.153 16.2224 10.4648 16.4667 10.7095C16.7109 10.9543 17.0223 11.1211 17.3613 11.1888C17.7004 11.2565 18.052 11.2221 18.3715 11.0898C18.691 10.9576 18.964 10.7335 19.1561 10.446C19.3482 10.1585 19.4506 9.82042 19.4504 9.47464C19.4501 9.01235 19.2666 8.56901 18.9401 8.24174C18.6136 7.91447 18.1707 7.72997 17.7084 7.72864Z" fill="#864E20"/>
<path d="M23.7504 14.3536C22.3906 16.3899 20.5435 18.054 18.3768 19.1946C16.2101 20.3353 13.7927 20.9162 11.3444 20.8846C5.80239 20.8846 4.78139 19.8846 2.20239 18.3556C2.73712 19.8375 3.71573 21.1184 5.00488 22.0239C6.29403 22.9294 7.83102 23.4154 9.40639 23.4156H16.0944C18.1249 23.4156 20.0722 22.609 21.508 21.1732C22.9438 19.7375 23.7504 17.7901 23.7504 15.7596V14.3536Z" fill="#E7C930"/>
<path d="M12.7505 14.0877C15.7765 14.0877 18.2295 13.9547 18.2295 13.7907C18.2295 13.6266 15.7765 13.4937 12.7505 13.4937C9.72452 13.4937 7.27148 13.6266 7.27148 13.7907C7.27148 13.9547 9.72452 14.0877 12.7505 14.0877Z" fill="#864E20"/>
<path d="M12.7505 15.2906C13.8379 15.2906 14.7195 15.1881 14.7195 15.0616C14.7195 14.9352 13.8379 14.8326 12.7505 14.8326C11.663 14.8326 10.7815 14.9352 10.7815 15.0616C10.7815 15.1881 11.663 15.2906 12.7505 15.2906Z" fill="#E7C930"/>
</svg>