<svg width="25" height="25" viewBox="0 0 25 25" fill="none" xmlns="http://www.w3.org/2000/svg">
<path d="M15.5134 1.41565H8.82543C4.59714 1.41565 1.16943 4.84336 1.16943 9.07165V15.7596C1.16943 19.9879 4.59714 23.4156 8.82543 23.4156H15.5134C19.7417 23.4156 23.1694 19.9879 23.1694 15.7596V9.07165C23.1694 4.84336 19.7417 1.41565 15.5134 1.41565Z" fill="#F8DE40"/>
<path d="M23.1693 14.3536C21.8097 16.3901 19.9626 18.0543 17.7959 19.1949C15.6292 20.3355 13.2117 20.9164 10.7633 20.8846C5.22134 20.8846 4.20034 19.8846 1.62134 18.3556C2.15606 19.8375 3.13467 21.1184 4.42383 22.0239C5.71298 22.9294 7.24996 23.4154 8.82534 23.4156H15.5133C17.5438 23.4156 19.4912 22.609 20.9269 21.1732C22.3627 19.7375 23.1693 17.7901 23.1693 15.7596V14.3536Z" fill="#E7C930"/>
<path d="M17.3695 13.1617C16.1485 11.5147 13.5805 10.9307 12.1695 10.9307C10.7585 10.9307 8.18553 11.5147 6.96953 13.1617C5.75353 14.8087 6.78153 16.5617 8.09753 16.4547C9.41353 16.3477 11.6435 16.0907 12.1745 16.0907C12.7055 16.0907 14.9365 16.3487 16.2515 16.4547C17.5665 16.5607 18.5965 14.8077 17.3695 13.1617Z" fill="#864E20"/>
<path d="M14.6744 17.4377C13.8545 17.2251 13.0152 17.0965 12.1694 17.0537C11.3252 17.0966 10.4875 17.2252 9.66935 17.4377C9.29335 17.5137 9.27935 17.8217 9.66935 17.7697C10.0594 17.7177 12.1694 17.6037 12.1694 17.6037C12.1694 17.6037 14.2884 17.7187 14.6744 17.7697C15.0604 17.8207 15.0494 17.5157 14.6744 17.4377Z" fill="#E7C930"/>
<path d="M9.07647 10.2596C9.07554 10.2979 9.06254 10.335 9.03932 10.3655C9.0161 10.3959 8.98385 10.4183 8.94716 10.4294C8.91048 10.4405 8.87123 10.4397 8.83502 10.4272C8.7988 10.4147 8.76747 10.391 8.74548 10.3596C8.59576 10.1344 8.40226 9.94154 8.17648 9.79262C7.89269 9.6042 7.55962 9.50369 7.21898 9.50369C6.87833 9.50369 6.54526 9.6042 6.26148 9.79262C6.03478 9.94191 5.84056 10.1354 5.69047 10.3616C5.66848 10.393 5.63715 10.4167 5.60093 10.4292C5.56472 10.4417 5.52547 10.4425 5.48879 10.4314C5.4521 10.4203 5.41985 10.3979 5.39663 10.3675C5.37341 10.337 5.36041 10.2999 5.35948 10.2616C5.35537 9.89124 5.47739 9.53048 5.70547 9.23862C5.88584 9.00996 6.11568 8.82515 6.37774 8.69808C6.63979 8.57102 6.92724 8.505 7.21847 8.505C7.50971 8.505 7.79716 8.57102 8.05921 8.69808C8.32127 8.82515 8.55111 9.00996 8.73148 9.23862C8.95821 9.53037 9.07977 9.89014 9.07647 10.2596ZM18.9795 10.2596C18.9785 10.2979 18.9655 10.335 18.9423 10.3655C18.9191 10.3959 18.8868 10.4183 18.8502 10.4294C18.8135 10.4405 18.7742 10.4397 18.738 10.4272C18.7018 10.4147 18.6705 10.391 18.6485 10.3596C18.4988 10.1346 18.3057 9.94186 18.0805 9.79262C17.7965 9.60411 17.4633 9.50356 17.1225 9.50356C16.7817 9.50356 16.4484 9.60411 16.1645 9.79262C15.9378 9.94191 15.7436 10.1354 15.5935 10.3616C15.5715 10.393 15.5401 10.4167 15.5039 10.4292C15.4677 10.4417 15.4285 10.4425 15.3918 10.4314C15.3551 10.4203 15.3229 10.3979 15.2996 10.3675C15.2764 10.337 15.2634 10.2999 15.2625 10.2616C15.2584 9.89124 15.3804 9.53048 15.6085 9.23862C15.7888 9.00996 16.0187 8.82515 16.2807 8.69808C16.5428 8.57102 16.8302 8.505 17.1215 8.505C17.4127 8.505 17.7002 8.57102 17.9622 8.69808C18.2243 8.82515 18.4541 9.00996 18.6345 9.23862C18.8612 9.53037 18.9828 9.89014 18.9795 10.2596Z" fill="#864E20"/>
<path d="M8.74532 10.3617C8.59561 10.1364 8.4021 9.9436 8.17632 9.79468C7.89253 9.60625 7.55946 9.50575 7.21882 9.50575C6.87818 9.50575 6.5451 9.60625 6.26132 9.79468C6.03462 9.94397 5.84041 10.1375 5.69032 10.3637C5.66755 10.3974 5.63372 10.4222 5.59466 10.4337C5.5556 10.4452 5.51375 10.4427 5.47632 10.4267V21.6667C5.47606 21.8963 5.52105 22.1237 5.60873 22.3358C5.6964 22.548 5.82505 22.7409 5.9873 22.9033C6.14955 23.0657 6.34222 23.1946 6.55431 23.2825C6.7664 23.3704 6.99373 23.4157 7.22332 23.4157C7.6864 23.4152 8.13034 23.2309 8.4577 22.9033C8.78505 22.5758 8.96905 22.1318 8.96932 21.6687V10.4207C8.93116 10.4396 8.88744 10.4441 8.84625 10.4332C8.80505 10.4224 8.7692 10.397 8.74532 10.3617ZM18.6423 10.3617C18.4927 10.1367 18.2996 9.94391 18.0743 9.79468C17.7904 9.60617 17.4571 9.50562 17.1163 9.50562C16.7755 9.50562 16.4423 9.60617 16.1583 9.79468C15.9316 9.94397 15.7374 10.1375 15.5873 10.3637C15.5645 10.3974 15.5307 10.4222 15.4917 10.4337C15.4526 10.4452 15.4107 10.4427 15.3733 10.4267V21.6667C15.3732 21.8963 15.4183 22.1237 15.5061 22.3359C15.5939 22.5481 15.7226 22.7409 15.8849 22.9033C16.0473 23.0658 16.24 23.1946 16.4522 23.2825C16.6643 23.3704 16.8917 23.4157 17.1213 23.4157C17.3508 23.4158 17.5781 23.3707 17.7902 23.283C18.0022 23.1952 18.195 23.0666 18.3573 22.9043C18.5196 22.7421 18.6484 22.5495 18.7362 22.3375C18.8241 22.1254 18.8693 21.8982 18.8693 21.6687V10.4207C18.8308 10.4405 18.7864 10.4454 18.7446 10.4345C18.7027 10.4236 18.6663 10.3977 18.6423 10.3617Z" fill="#26A9E0"/>
</svg>