<svg width="25" height="25" viewBox="0 0 25 25" fill="none" xmlns="http://www.w3.org/2000/svg">
<path d="M15.4553 1.48914H8.76733C4.53904 1.48914 1.11133 4.91684 1.11133 9.14514V15.8331C1.11133 20.0614 4.53904 23.4891 8.76733 23.4891H15.4553C19.6836 23.4891 23.1113 20.0614 23.1113 15.8331V9.14514C23.1113 4.91684 19.6836 1.48914 15.4553 1.48914Z" fill="#F8DE40"/>
<path d="M23.1112 14.4271C21.7515 16.4634 19.9043 18.1275 17.7376 19.2681C15.571 20.4087 13.1536 20.9897 10.7052 20.9581C5.16323 20.9581 4.14223 19.9581 1.56323 18.4291C2.09796 19.911 3.07657 21.1919 4.36572 22.0974C5.65487 23.0029 7.19186 23.4889 8.76723 23.4891H15.4552C17.4857 23.4891 19.4331 22.6825 20.8688 21.2467C22.3046 19.811 23.1112 17.8636 23.1112 15.8331V14.4271Z" fill="#E7C930"/>
<path d="M16.1944 13.0452C15.6734 12.485 15.0411 12.0399 14.3379 11.7385C13.6347 11.4371 12.8763 11.2861 12.1114 11.2952C11.3464 11.2861 10.588 11.4371 9.88487 11.7385C9.18172 12.0399 8.54936 12.485 8.02839 13.0452C7.06939 14.3372 7.88139 15.7122 8.91339 15.6282C9.94539 15.5442 11.6944 15.3432 12.1134 15.3432C12.5324 15.3432 14.2804 15.5432 15.3134 15.6282C16.3464 15.7132 17.1534 14.3372 16.1944 13.0452Z" fill="#864E20"/>
<path d="M13.8614 13.7551C12.5174 13.4551 12.1114 13.8641 12.1114 13.8641C12.1114 13.8641 11.7054 13.4581 10.3614 13.7551C9.94486 13.8917 9.57231 14.1371 9.28226 14.4658C8.9922 14.7946 8.79514 15.1948 8.71143 15.6251C8.78027 15.6316 8.84958 15.6316 8.91843 15.6251C9.94943 15.5421 11.6994 15.3401 12.1184 15.3401C12.5374 15.3401 14.2854 15.5401 15.3184 15.6251C15.3873 15.6316 15.4566 15.6316 15.5254 15.6251C15.4405 15.1931 15.2413 14.7918 14.9487 14.4629C14.656 14.1341 14.2806 13.8896 13.8614 13.7551Z" fill="#F06880"/>
<path d="M14.0763 16.3991C13.4331 16.2331 12.7748 16.1326 12.1113 16.0991C11.4479 16.1326 10.7895 16.2331 10.1463 16.3991C9.85234 16.4601 9.84634 16.6991 10.1463 16.6601C10.4463 16.6211 12.1113 16.5301 12.1113 16.5301C12.1113 16.5301 13.7743 16.6201 14.0763 16.6601C14.3783 16.7001 14.3703 16.4601 14.0763 16.3991Z" fill="#E7C930"/>
<path d="M9.7113 9.32219L9.1323 9.08919C8.43295 8.79579 7.7194 8.53747 6.9943 8.31519C6.63081 8.20388 6.26397 8.10383 5.8943 8.01519H5.8823C5.82566 8.00219 5.76624 8.00967 5.71459 8.03629C5.66293 8.06291 5.62236 8.10696 5.60008 8.16063C5.5778 8.2143 5.57523 8.27413 5.59285 8.32951C5.61046 8.38489 5.64711 8.43225 5.6963 8.46319L5.7063 8.46919C6.0313 8.66919 6.3623 8.86119 6.6973 9.04219C6.88463 9.14219 7.07263 9.23919 7.2613 9.33319C7.30219 9.35346 7.3366 9.38476 7.36066 9.42354C7.38472 9.46232 7.39747 9.50705 7.39747 9.55269C7.39747 9.59833 7.38472 9.64306 7.36066 9.68184C7.3366 9.72063 7.30219 9.75192 7.2613 9.77219C7.0713 9.86619 6.8833 9.96352 6.6973 10.0642C6.3623 10.2442 6.0303 10.4332 5.7053 10.6372L5.6893 10.6472C5.64062 10.6784 5.60451 10.7258 5.5873 10.7811C5.5701 10.8363 5.57291 10.8958 5.59523 10.9492C5.61755 11.0025 5.65797 11.0463 5.70937 11.0728C5.76077 11.0994 5.81987 11.1069 5.8763 11.0942H5.8943C6.2683 11.0062 6.6353 10.9042 6.9993 10.7942C7.3633 10.6842 7.7223 10.5602 8.0783 10.4322C8.2573 10.3682 8.4333 10.2982 8.6103 10.2322L9.1363 10.0192L9.7093 9.78719C9.75773 9.77068 9.79981 9.73948 9.82968 9.69794C9.85954 9.65639 9.87571 9.60657 9.87593 9.5554C9.87615 9.50424 9.86041 9.45427 9.8309 9.41247C9.80139 9.37067 9.75959 9.33911 9.7113 9.32219ZM14.5163 9.32219L15.0903 9.08719C15.7896 8.79379 16.5032 8.53547 17.2283 8.31319C17.5918 8.20188 17.9586 8.10183 18.3283 8.01319H18.3403C18.3969 8.00019 18.4564 8.00767 18.508 8.03429C18.5597 8.06091 18.6002 8.10496 18.6225 8.15863C18.6448 8.2123 18.6474 8.27213 18.6298 8.32751C18.6121 8.38289 18.5755 8.43025 18.5263 8.46119L18.5163 8.46719C18.1913 8.66719 17.8603 8.85919 17.5253 9.04019C17.3386 9.14019 17.1506 9.23719 16.9613 9.33119C16.9204 9.35146 16.886 9.38276 16.8619 9.42154C16.8379 9.46032 16.8251 9.50505 16.8251 9.55069C16.8251 9.59633 16.8379 9.64106 16.8619 9.67984C16.886 9.71863 16.9204 9.74992 16.9613 9.77019C17.1513 9.86419 17.3393 9.96152 17.5253 10.0622C17.8603 10.2422 18.1923 10.4312 18.5173 10.6352L18.5333 10.6452C18.582 10.6764 18.6181 10.7238 18.6353 10.7791C18.6525 10.8343 18.6497 10.8938 18.6274 10.9472C18.605 11.0005 18.5646 11.0443 18.5132 11.0708C18.4618 11.0974 18.4027 11.1049 18.3463 11.0922H18.3283C17.9543 11.0042 17.5873 10.9022 17.2233 10.7922C16.8593 10.6822 16.5003 10.5582 16.1443 10.4302C15.9653 10.3662 15.7893 10.2962 15.6123 10.2302L15.0863 10.0172L14.5133 9.78519C14.4657 9.76775 14.4247 9.73606 14.3959 9.69443C14.367 9.65281 14.3517 9.60329 14.352 9.55264C14.3523 9.50198 14.3683 9.45266 14.3977 9.41142C14.4271 9.37017 14.4685 9.33901 14.5163 9.32219Z" fill="#864E20"/>
</svg>