<svg width="25" height="25" viewBox="0 0 25 25" fill="none" xmlns="http://www.w3.org/2000/svg">
<path d="M15.5815 1.48914H8.89355C4.66526 1.48914 1.23755 4.91684 1.23755 9.14514V15.8331C1.23755 20.0614 4.66526 23.4891 8.89355 23.4891H15.5815C19.8098 23.4891 23.2375 20.0614 23.2375 15.8331V9.14514C23.2375 4.91684 19.8098 1.48914 15.5815 1.48914Z" fill="#F8DE40"/>
<path d="M23.2375 14.4271C21.8777 16.4634 20.0305 18.1275 17.8639 19.2681C15.6972 20.4087 13.2798 20.9897 10.8315 20.9581C5.28945 20.9581 4.26845 19.9581 1.68945 18.4291C2.22418 19.911 3.20279 21.1919 4.49194 22.0974C5.78109 23.0029 7.31808 23.4889 8.89345 23.4891H15.5815C17.612 23.4891 19.5593 22.6825 20.9951 21.2467C22.4308 19.811 23.2375 17.8636 23.2375 15.8331V14.4271Z" fill="#E7C930"/>
<path d="M15.1855 6.95712C15.5615 7.16412 15.9135 7.35712 16.2675 7.53712C16.7365 7.77912 17.1935 8.01012 17.6675 8.21612C17.7815 8.27712 17.9035 8.31612 18.0215 8.37012L18.1965 8.45012C18.2555 8.47812 18.3175 8.49512 18.3775 8.52212L18.7325 8.67212L18.7425 8.67712C18.8635 8.72112 18.9845 8.76712 19.1065 8.81712C19.3505 8.92912 19.6065 9.00412 19.8635 9.11712C19.9935 9.17212 20.1265 9.22212 20.2635 9.27812C20.2984 9.29142 20.3281 9.31568 20.3481 9.34727C20.3681 9.37886 20.3773 9.41608 20.3744 9.45336C20.3715 9.49063 20.3565 9.52595 20.3319 9.55403C20.3072 9.58211 20.274 9.60144 20.2375 9.60912C20.0938 9.64973 19.9475 9.67981 19.7995 9.69912C19.5051 9.73795 19.2077 9.74733 18.9115 9.72712C18.7645 9.71612 18.6115 9.70412 18.4675 9.68312C18.3235 9.66212 18.1765 9.62212 18.0305 9.59012C17.8846 9.55611 17.741 9.51302 17.6005 9.46112C17.4615 9.40612 17.3175 9.36112 17.1825 9.29612C16.634 9.05022 16.1359 8.70471 15.7135 8.27712C15.3896 7.95914 15.1266 7.58465 14.9375 7.17212C14.9236 7.13857 14.9206 7.10151 14.929 7.06618C14.9373 7.03085 14.9566 6.99905 14.984 6.97527C15.0114 6.95149 15.0456 6.93694 15.0818 6.93368C15.118 6.93042 15.1542 6.93862 15.1855 6.95712Z" fill="#864E20"/>
<path d="M17.1755 9.29718C17.3105 9.36318 17.4545 9.40718 17.5935 9.46218C17.734 9.51409 17.8776 9.55717 18.0235 9.59119C18.1695 9.62319 18.3135 9.65919 18.4605 9.68419C18.6075 9.70919 18.7605 9.71719 18.9045 9.72819H18.9705C18.9419 9.99873 18.8505 10.2589 18.7036 10.4878C18.5567 10.7168 18.3583 10.9083 18.1243 11.0471C17.8903 11.1859 17.6272 11.2681 17.3558 11.2872C17.0844 11.3063 16.8123 11.2618 16.5612 11.1571C16.3101 11.0525 16.0869 10.8906 15.9093 10.6845C15.7318 10.4783 15.6049 10.2336 15.5387 9.96969C15.4725 9.70582 15.4688 9.43013 15.528 9.16458C15.5871 8.89904 15.7075 8.65099 15.8795 8.44019C16.2623 8.79404 16.7 9.08347 17.1755 9.29718ZM7.53747 15.8422C7.53747 15.8422 11.2875 13.7172 14.1625 13.5302C17.0375 13.3432 18.0685 13.7492 16.8185 14.0302C15.5685 14.3112 13.9125 13.8742 11.3345 14.7642C8.75647 15.6542 6.80647 16.3742 7.53747 15.8422Z" fill="#864E20"/>
<path d="M13.8224 15.1032C12.4384 15.0132 10.3484 16.4602 10.3484 16.4602C9.92145 16.8392 10.9484 16.4082 12.3024 15.8882C13.6564 15.3682 14.3685 15.8732 15.0024 15.7472C15.6364 15.6212 15.2074 15.1892 13.8224 15.1032Z" fill="#E7C930"/>
<path d="M14.9255 1.48914H8.89355C6.86305 1.48914 4.91572 2.29575 3.47994 3.73153C2.04416 5.1673 1.23755 7.11464 1.23755 9.14514V15.8331C14.5295 15.8331 14.9255 1.48914 14.9255 1.48914Z" fill="#CAB24F"/>
<path d="M14.9255 1.48914H8.89355C8.62232 1.48931 8.35128 1.50367 8.08155 1.53214C8.96655 9.53314 1.23755 14.1761 1.23755 14.1761V15.8331C14.5295 15.8331 14.9255 1.48914 14.9255 1.48914Z" fill="#FFED9F"/>
<path d="M1.95155 5.91614C1.48039 6.92734 1.23666 8.02955 1.23755 9.14514V14.1761C3.58032 12.6543 5.50537 10.5707 6.83755 8.11514C5.35257 7.09748 3.698 6.35282 1.95155 5.91614Z" fill="#DCC562"/>
</svg>