<svg width="25" height="25" viewBox="0 0 25 25" fill="none" xmlns="http://www.w3.org/2000/svg">
<path d="M15.9788 1.41565H9.29077C5.06247 1.41565 1.63477 4.84336 1.63477 9.07165V15.7596C1.63477 19.9879 5.06247 23.4156 9.29077 23.4156H15.9788C20.2071 23.4156 23.6348 19.9879 23.6348 15.7596V9.07165C23.6348 4.84336 20.2071 1.41565 15.9788 1.41565Z" fill="#F8DE40"/>
<path d="M7.68967 7.72864C7.34402 7.72825 7.00602 7.8304 6.71845 8.02216C6.43087 8.21393 6.20664 8.48669 6.07414 8.80594C5.94163 9.12519 5.90681 9.47656 5.97407 9.81561C6.04134 10.1547 6.20766 10.4661 6.45201 10.7106C6.69635 10.9551 7.00772 11.1216 7.34673 11.1891C7.68573 11.2565 8.03713 11.2219 8.35645 11.0896C8.67577 10.9572 8.94867 10.7332 9.1406 10.4457C9.33253 10.1582 9.43487 9.8203 9.43467 9.47464C9.43441 9.01183 9.25051 8.56803 8.92334 8.24068C8.59618 7.91333 8.15249 7.72917 7.68967 7.72864ZM17.5927 7.72864C17.2469 7.72766 16.9086 7.8293 16.6206 8.0207C16.3327 8.21211 16.108 8.48466 15.975 8.80386C15.842 9.12305 15.8068 9.47452 15.8737 9.81376C15.9406 10.153 16.1067 10.4648 16.3509 10.7095C16.5952 10.9543 16.9065 11.1211 17.2456 11.1888C17.5847 11.2565 17.9363 11.2221 18.2558 11.0898C18.5753 10.9576 18.8483 10.7335 19.0404 10.446C19.2325 10.1585 19.3349 9.82042 19.3347 9.47464C19.3344 9.01235 19.1509 8.56901 18.8244 8.24174C18.4979 7.91447 18.055 7.72997 17.5927 7.72864Z" fill="#864E20"/>
<path d="M23.6347 14.3536C22.2749 16.3899 20.4277 18.054 18.2611 19.1946C16.0944 20.3353 13.677 20.9162 11.2287 20.8846C5.68667 20.8846 4.66567 19.8846 2.08667 18.3556C2.62139 19.8375 3.60001 21.1184 4.88916 22.0239C6.17831 22.9294 7.71529 23.4154 9.29067 23.4156H15.9787C18.0092 23.4156 19.9565 22.609 21.3923 21.1732C22.8281 19.7375 23.6347 17.7901 23.6347 15.7596V14.3536Z" fill="#E7C930"/>
<path d="M15.7347 13.5726C15.6624 13.1529 15.5652 12.7378 15.4437 12.3296C15.3211 11.9079 15.1574 11.4992 14.9547 11.1096C14.7395 10.6864 14.4432 10.3096 14.0827 10.0006C13.8824 9.83597 13.6564 9.70555 13.4137 9.6146C12.9144 9.4286 12.3649 9.4286 11.8657 9.6146C11.6231 9.70657 11.3969 9.83689 11.1957 10.0006C10.8354 10.3098 10.5392 10.6865 10.3237 11.1096C10.1208 11.4996 9.95673 11.9086 9.83367 12.3306C9.71211 12.7384 9.61526 13.1531 9.54367 13.5726C9.40569 14.3991 9.32948 15.2348 9.31567 16.0726C9.31567 16.5106 9.31567 16.9466 9.33667 17.3826C9.33764 17.4162 9.35126 17.4481 9.3748 17.472C9.39834 17.496 9.43007 17.5101 9.4636 17.5116C9.49714 17.5132 9.53001 17.5019 9.55562 17.4802C9.58123 17.4585 9.59768 17.4279 9.60167 17.3946C9.66367 16.9666 9.72967 16.5416 9.80167 16.1186C9.93467 15.3186 10.1017 14.5186 10.3087 13.7466C10.4953 12.9902 10.7776 12.2606 11.1487 11.5756C11.3172 11.2701 11.5414 10.9987 11.8097 10.7756C12.0425 10.5836 12.3349 10.4786 12.6367 10.4786C12.9385 10.4786 13.2308 10.5836 13.4637 10.7756C13.7321 10.9989 13.9566 11.2701 14.1257 11.5756C14.4968 12.2611 14.7794 12.9909 14.9667 13.7476C15.1727 14.5206 15.3397 15.3156 15.4727 16.1196C15.5477 16.5406 15.6127 16.9626 15.6727 17.3876C15.6779 17.4198 15.6947 17.449 15.7201 17.4696C15.7454 17.4903 15.7774 17.5008 15.81 17.4993C15.8426 17.4979 15.8736 17.4844 15.8969 17.4616C15.9203 17.4388 15.9344 17.4082 15.9367 17.3756C15.9577 16.9426 15.9617 16.5086 15.9567 16.0756C15.9446 15.2369 15.8704 14.4003 15.7347 13.5726Z" fill="#864E20"/>
</svg>