<svg width="212" height="52" viewBox="0 0 212 52" fill="none" xmlns="http://www.w3.org/2000/svg">
<rect x="1.61035" y="1" width="209" height="50" rx="25" fill="#7140FC" fill-opacity="0.16"/>
<rect x="1.61035" y="1" width="209" height="50" rx="25" fill="white" fill-opacity="0.11"/>
<rect x="1.61035" y="1" width="209" height="50" rx="25" stroke="white" stroke-width="2"/>
<path d="M26.6104 17V13C26.6104 12.7348 26.7157 12.4804 26.9032 12.2929C27.0908 12.1054 27.3451 12 27.6104 12C27.8756 12 28.1299 12.1054 28.3175 12.2929C28.505 12.4804 28.6104 12.7348 28.6104 13V17C28.6104 17.2652 28.505 17.5196 28.3175 17.7071C28.1299 17.8946 27.8756 18 27.6104 18C27.3451 18 27.0908 17.8946 26.9032 17.7071C26.7157 17.5196 26.6104 17.2652 26.6104 17ZM31.6104 18C31.8756 18 32.1299 17.8946 32.3175 17.7071C32.505 17.5196 32.6104 17.2652 32.6104 17V13C32.6104 12.7348 32.505 12.4804 32.3175 12.2929C32.1299 12.1054 31.8756 12 31.6104 12C31.3451 12 31.0908 12.1054 30.9032 12.2929C30.7157 12.4804 30.6104 12.7348 30.6104 13V17C30.6104 17.2652 30.7157 17.5196 30.9032 17.7071C31.0908 17.8946 31.3451 18 31.6104 18ZM35.6104 18C35.8756 18 36.1299 17.8946 36.3175 17.7071C36.505 17.5196 36.6104 17.2652 36.6104 17V13C36.6104 12.7348 36.505 12.4804 36.3175 12.2929C36.1299 12.1054 35.8756 12 35.6104 12C35.3451 12 35.0908 12.1054 34.9032 12.2929C34.7157 12.4804 34.6104 12.7348 34.6104 13V17C34.6104 17.2652 34.7157 17.5196 34.9032 17.7071C35.0908 17.8946 35.3451 18 35.6104 18ZM47.6104 25V26C47.6097 27.2715 47.1246 28.495 46.2538 29.4215C45.383 30.3481 44.1919 30.908 42.9229 30.9875C42.2341 32.9139 41.0738 34.6372 39.5479 36H42.6104C42.8756 36 43.1299 36.1054 43.3175 36.2929C43.505 36.4804 43.6104 36.7348 43.6104 37C43.6104 37.2652 43.505 37.5196 43.3175 37.7071C43.1299 37.8946 42.8756 38 42.6104 38H20.6104C20.3451 38 20.0908 37.8946 19.9032 37.7071C19.7157 37.5196 19.6104 37.2652 19.6104 37C19.6104 36.7348 19.7157 36.4804 19.9032 36.2929C20.0908 36.1054 20.3451 36 20.6104 36H23.6729C22.3985 34.8718 21.3776 33.4865 20.6774 31.9352C19.9772 30.384 19.6135 28.702 19.6104 27V21C19.6104 20.7348 19.7157 20.4804 19.9032 20.2929C20.0908 20.1054 20.3451 20 20.6104 20H42.6104C43.9364 20 45.2082 20.5268 46.1459 21.4645C47.0836 22.4021 47.6104 23.6739 47.6104 25ZM41.6104 22H21.6104V27C21.6144 28.8772 22.1448 30.7157 23.1414 32.3066C24.1379 33.8975 25.5606 35.1771 27.2479 36H35.9729C37.2333 35.384 38.3506 34.5107 39.2527 33.4364C40.1548 32.362 40.8217 31.1105 41.2104 29.7625C41.2243 29.7397 41.2328 29.7141 41.2354 29.6875C41.4866 28.8139 41.6129 27.909 41.6104 27V22ZM45.6104 25C45.6096 24.3802 45.417 23.7758 45.0589 23.27C44.7007 22.7641 44.1947 22.3816 43.6104 22.175V27C43.6111 27.628 43.561 28.2551 43.4604 28.875C44.0808 28.6917 44.6254 28.3127 45.0129 27.7946C45.4003 27.2765 45.6099 26.647 45.6104 26V25Z" fill="white"/>
<path d="M64.1837 34.168C63.0637 34.168 62.0557 33.976 61.1597 33.592C60.2637 33.192 59.5597 32.632 59.0477 31.912C58.5357 31.192 58.2797 30.352 58.2797 29.392H61.2077C61.2717 30.112 61.5517 30.704 62.0477 31.168C62.5597 31.632 63.2717 31.864 64.1837 31.864C65.1277 31.864 65.8637 31.64 66.3917 31.192C66.9197 30.728 67.1837 30.136 67.1837 29.416C67.1837 28.856 67.0157 28.4 66.6797 28.048C66.3597 27.696 65.9517 27.424 65.4557 27.232C64.9757 27.04 64.3037 26.832 63.4397 26.608C62.3517 26.32 61.4637 26.032 60.7757 25.744C60.1037 25.44 59.5277 24.976 59.0477 24.352C58.5677 23.728 58.3277 22.896 58.3277 21.856C58.3277 20.896 58.5677 20.056 59.0477 19.336C59.5277 18.616 60.1997 18.064 61.0637 17.68C61.9277 17.296 62.9277 17.104 64.0637 17.104C65.6797 17.104 66.9997 17.512 68.0237 18.328C69.0637 19.128 69.6397 20.232 69.7517 21.64H66.7277C66.6797 21.032 66.3917 20.512 65.8637 20.08C65.3357 19.648 64.6397 19.432 63.7757 19.432C62.9917 19.432 62.3517 19.632 61.8557 20.032C61.3597 20.432 61.1117 21.008 61.1117 21.76C61.1117 22.272 61.2637 22.696 61.5677 23.032C61.8877 23.352 62.2877 23.608 62.7677 23.8C63.2477 23.992 63.9037 24.2 64.7357 24.424C65.8397 24.728 66.7357 25.032 67.4237 25.336C68.1277 25.64 68.7197 26.112 69.1997 26.752C69.6957 27.376 69.9437 28.216 69.9437 29.272C69.9437 30.12 69.7117 30.92 69.2477 31.672C68.7997 32.424 68.1357 33.032 67.2557 33.496C66.3917 33.944 65.3677 34.168 64.1837 34.168ZM80.0121 20.56C81.0201 20.56 81.9161 20.776 82.7001 21.208C83.5001 21.64 84.1241 22.28 84.5721 23.128C85.0361 23.976 85.2681 25 85.2681 26.2V34H82.5561V26.608C82.5561 25.424 82.2601 24.52 81.6681 23.896C81.0761 23.256 80.2681 22.936 79.2441 22.936C78.2201 22.936 77.4041 23.256 76.7961 23.896C76.2041 24.52 75.9081 25.424 75.9081 26.608V34H73.1721V16.24H75.9081V22.312C76.3721 21.752 76.9561 21.32 77.6601 21.016C78.3801 20.712 79.1641 20.56 80.0121 20.56ZM94.494 34.216C93.246 34.216 92.118 33.936 91.11 33.376C90.102 32.8 89.31 32 88.734 30.976C88.158 29.936 87.87 28.736 87.87 27.376C87.87 26.032 88.166 24.84 88.758 23.8C89.35 22.76 90.158 21.96 91.182 21.4C92.206 20.84 93.35 20.56 94.614 20.56C95.878 20.56 97.022 20.84 98.046 21.4C99.07 21.96 99.878 22.76 100.47 23.8C101.062 24.84 101.358 26.032 101.358 27.376C101.358 28.72 101.054 29.912 100.446 30.952C99.838 31.992 99.006 32.8 97.95 33.376C96.91 33.936 95.758 34.216 94.494 34.216ZM94.494 31.84C95.198 31.84 95.854 31.672 96.462 31.336C97.086 31 97.59 30.496 97.974 29.824C98.358 29.152 98.55 28.336 98.55 27.376C98.55 26.416 98.366 25.608 97.998 24.952C97.63 24.28 97.142 23.776 96.534 23.44C95.926 23.104 95.27 22.936 94.566 22.936C93.862 22.936 93.206 23.104 92.598 23.44C92.006 23.776 91.534 24.28 91.182 24.952C90.83 25.608 90.654 26.416 90.654 27.376C90.654 28.8 91.014 29.904 91.734 30.688C92.47 31.456 93.39 31.84 94.494 31.84ZM106.799 22.696C107.199 22.024 107.727 21.504 108.383 21.136C109.055 20.752 109.847 20.56 110.759 20.56V23.392H110.063C108.991 23.392 108.175 23.664 107.615 24.208C107.071 24.752 106.799 25.696 106.799 27.04V34H104.063V20.776H106.799V22.696ZM116.466 23.008V30.328C116.466 30.824 116.578 31.184 116.802 31.408C117.042 31.616 117.442 31.72 118.002 31.72H119.682V34H117.522C116.29 34 115.346 33.712 114.69 33.136C114.034 32.56 113.706 31.624 113.706 30.328V23.008H112.146V20.776H113.706V17.488H116.466V20.776H119.682V23.008H116.466ZM137.366 25.432C138.262 25.592 139.022 26.064 139.646 26.848C140.27 27.632 140.582 28.52 140.582 29.512C140.582 30.36 140.358 31.128 139.91 31.816C139.478 32.488 138.846 33.024 138.014 33.424C137.182 33.808 136.214 34 135.11 34H128.438V17.32H134.798C135.934 17.32 136.91 17.512 137.726 17.896C138.542 18.28 139.158 18.8 139.574 19.456C139.99 20.096 140.198 20.816 140.198 21.616C140.198 22.576 139.942 23.376 139.43 24.016C138.918 24.656 138.23 25.128 137.366 25.432ZM131.174 24.328H134.558C135.454 24.328 136.15 24.128 136.646 23.728C137.158 23.312 137.414 22.72 137.414 21.952C137.414 21.2 137.158 20.616 136.646 20.2C136.15 19.768 135.454 19.552 134.558 19.552H131.174V24.328ZM134.87 31.768C135.798 31.768 136.526 31.544 137.054 31.096C137.582 30.648 137.846 30.024 137.846 29.224C137.846 28.408 137.566 27.76 137.006 27.28C136.446 26.8 135.702 26.56 134.774 26.56H131.174V31.768H134.87ZM146.291 22.696C146.691 22.024 147.219 21.504 147.875 21.136C148.547 20.752 149.339 20.56 150.251 20.56V23.392H149.555C148.483 23.392 147.667 23.664 147.107 24.208C146.563 24.752 146.291 25.696 146.291 27.04V34H143.555V20.776H146.291V22.696ZM164.886 27.064C164.886 27.56 164.854 28.008 164.79 28.408H154.686C154.766 29.464 155.158 30.312 155.862 30.952C156.566 31.592 157.43 31.912 158.454 31.912C159.926 31.912 160.966 31.296 161.574 30.064H164.526C164.126 31.28 163.398 32.28 162.342 33.064C161.302 33.832 160.006 34.216 158.454 34.216C157.19 34.216 156.054 33.936 155.046 33.376C154.054 32.8 153.27 32 152.694 30.976C152.134 29.936 151.854 28.736 151.854 27.376C151.854 26.016 152.126 24.824 152.67 23.8C153.23 22.76 154.006 21.96 154.998 21.4C156.006 20.84 157.158 20.56 158.454 20.56C159.702 20.56 160.814 20.832 161.79 21.376C162.766 21.92 163.526 22.688 164.07 23.68C164.614 24.656 164.886 25.784 164.886 27.064ZM162.03 26.2C162.014 25.192 161.654 24.384 160.95 23.776C160.246 23.168 159.374 22.864 158.334 22.864C157.39 22.864 156.582 23.168 155.91 23.776C155.238 24.368 154.838 25.176 154.71 26.2H162.03ZM166.666 27.328C166.666 26 166.938 24.824 167.482 23.8C168.042 22.776 168.794 21.984 169.738 21.424C170.698 20.848 171.754 20.56 172.906 20.56C173.946 20.56 174.85 20.768 175.618 21.184C176.402 21.584 177.026 22.088 177.49 22.696V20.776H180.25V34H177.49V32.032C177.026 32.656 176.394 33.176 175.594 33.592C174.794 34.008 173.882 34.216 172.858 34.216C171.722 34.216 170.682 33.928 169.738 33.352C168.794 32.76 168.042 31.944 167.482 30.904C166.938 29.848 166.666 28.656 166.666 27.328ZM177.49 27.376C177.49 26.464 177.298 25.672 176.914 25C176.546 24.328 176.058 23.816 175.45 23.464C174.842 23.112 174.186 22.936 173.482 22.936C172.778 22.936 172.122 23.112 171.514 23.464C170.906 23.8 170.41 24.304 170.026 24.976C169.658 25.632 169.474 26.416 169.474 27.328C169.474 28.24 169.658 29.04 170.026 29.728C170.41 30.416 170.906 30.944 171.514 31.312C172.138 31.664 172.794 31.84 173.482 31.84C174.186 31.84 174.842 31.664 175.45 31.312C176.058 30.96 176.546 30.448 176.914 29.776C177.298 29.088 177.49 28.288 177.49 27.376ZM189.076 27.4L195.172 34H191.476L186.58 28.312V34H183.844V16.24H186.58V26.56L191.38 20.776H195.172L189.076 27.4Z" fill="white"/>
</svg>
