<svg width="29" height="24" viewBox="0 0 29 24" fill="none" xmlns="http://www.w3.org/2000/svg">
<path fill-rule="evenodd" clip-rule="evenodd" d="M25.7771 23.5417H2.81877C1.48416 23.5417 0.4021 22.4596 0.4021 21.125V3.00004C0.4021 1.66544 1.48416 0.583374 2.81877 0.583374H25.7771C27.1117 0.583374 28.1938 1.66544 28.1938 3.00004V21.125C28.1938 22.4596 27.1117 23.5417 25.7771 23.5417ZM26.9854 3.00004C26.9854 2.33304 26.4441 1.79171 25.7771 1.79171H2.81877C2.15177 1.79171 1.61043 2.33304 1.61043 3.00004V6.62504H26.9854V3.00004ZM26.9854 7.83337H1.61043V21.125C1.61043 21.792 2.15177 22.3334 2.81877 22.3334H25.7771C26.4441 22.3334 26.9854 21.792 26.9854 21.125V7.83337ZM24.5688 16.2917H23.3604C23.0269 16.2917 22.7563 16.0216 22.7563 15.6875V14.4792C22.7563 14.1457 23.0269 13.875 23.3604 13.875H24.5688C24.9029 13.875 25.1729 14.1457 25.1729 14.4792V15.6875C25.1729 16.0216 24.9029 16.2917 24.5688 16.2917ZM24.5688 12.0625H23.3604C23.0269 12.0625 22.7563 11.7925 22.7563 11.4584V10.25C22.7563 9.91594 23.0269 9.64587 23.3604 9.64587H24.5688C24.9029 9.64587 25.1729 9.91594 25.1729 10.25V11.4584C25.1729 11.7925 24.9029 12.0625 24.5688 12.0625ZM19.7354 16.2917H18.5271C18.1936 16.2917 17.9229 16.0216 17.9229 15.6875V14.4792C17.9229 14.1457 18.1936 13.875 18.5271 13.875H19.7354C20.0695 13.875 20.3396 14.1457 20.3396 14.4792V15.6875C20.3396 16.0216 20.0695 16.2917 19.7354 16.2917ZM19.7354 12.0625H18.5271C18.1936 12.0625 17.9229 11.7925 17.9229 11.4584V10.25C17.9229 9.91594 18.1936 9.64587 18.5271 9.64587H19.7354C20.0695 9.64587 20.3396 9.91594 20.3396 10.25V11.4584C20.3396 11.7925 20.0695 12.0625 19.7354 12.0625ZM14.9021 16.2917H13.6938C13.3597 16.2917 13.0896 16.0216 13.0896 15.6875V14.4792C13.0896 14.1457 13.3597 13.875 13.6938 13.875H14.9021C15.2362 13.875 15.5063 14.1457 15.5063 14.4792V15.6875C15.5063 16.0216 15.2362 16.2917 14.9021 16.2917ZM14.9021 12.0625H13.6938C13.3597 12.0625 13.0896 11.7925 13.0896 11.4584V10.25C13.0896 9.91594 13.3597 9.64587 13.6938 9.64587H14.9021C15.2362 9.64587 15.5063 9.91594 15.5063 10.25V11.4584C15.5063 11.7925 15.2362 12.0625 14.9021 12.0625ZM10.0688 20.5209H8.86043C8.52633 20.5209 8.25627 20.2508 8.25627 19.9167V18.7084C8.25627 18.3743 8.52633 18.1042 8.86043 18.1042H10.0688C10.4029 18.1042 10.6729 18.3743 10.6729 18.7084V19.9167C10.6729 20.2508 10.4029 20.5209 10.0688 20.5209ZM10.0688 16.2917H8.86043C8.52633 16.2917 8.25627 16.0216 8.25627 15.6875V14.4792C8.25627 14.1457 8.52633 13.875 8.86043 13.875H10.0688C10.4029 13.875 10.6729 14.1457 10.6729 14.4792V15.6875C10.6729 16.0216 10.4029 16.2917 10.0688 16.2917ZM10.0688 12.0625H8.86043C8.52633 12.0625 8.25627 11.7925 8.25627 11.4584V10.25C8.25627 9.91594 8.52633 9.64587 8.86043 9.64587H10.0688C10.4029 9.64587 10.6729 9.91594 10.6729 10.25V11.4584C10.6729 11.7925 10.4029 12.0625 10.0688 12.0625ZM5.23543 20.5209H4.0271C3.693 20.5209 3.42293 20.2508 3.42293 19.9167V18.7084C3.42293 18.3743 3.693 18.1042 4.0271 18.1042H5.23543C5.56954 18.1042 5.8396 18.3743 5.8396 18.7084V19.9167C5.8396 20.2508 5.56954 20.5209 5.23543 20.5209ZM5.23543 16.2917H4.0271C3.693 16.2917 3.42293 16.0216 3.42293 15.6875V14.4792C3.42293 14.1457 3.693 13.875 4.0271 13.875H5.23543C5.56954 13.875 5.8396 14.1457 5.8396 14.4792V15.6875C5.8396 16.0216 5.56954 16.2917 5.23543 16.2917ZM13.6938 18.1042H14.9021C15.2362 18.1042 15.5063 18.3743 15.5063 18.7084V19.9167C15.5063 20.2508 15.2362 20.5209 14.9021 20.5209H13.6938C13.3597 20.5209 13.0896 20.2508 13.0896 19.9167V18.7084C13.0896 18.3743 13.3597 18.1042 13.6938 18.1042Z" fill="#7140FC" stroke="#7140FC" stroke-width="0.5"/>
</svg>