<svg width="18" height="18" viewBox="0 0 18 18" fill="none" xmlns="http://www.w3.org/2000/svg">
<path d="M5.69545 7.98083H7.11212V9.3975H5.69545V7.98083ZM15.6121 4.43917V14.3558C15.6121 15.135 14.9746 15.7725 14.1955 15.7725H4.27879C3.90306 15.7725 3.54273 15.6232 3.27705 15.3576C3.01138 15.0919 2.86212 14.7316 2.86212 14.3558L2.8692 4.43917C2.8692 3.66 3.49254 3.0225 4.27879 3.0225H4.98712V1.60583H6.40379V3.0225H12.0705V1.60583H13.4871V3.0225H14.1955C14.9746 3.0225 15.6121 3.66 15.6121 4.43917ZM4.27879 5.85583H14.1955V4.43917H4.27879V5.85583ZM14.1955 14.3558V7.2725H4.27879V14.3558H14.1955ZM11.3621 9.3975H12.7788V7.98083H11.3621V9.3975ZM8.52879 9.3975H9.94545V7.98083H8.52879V9.3975Z" fill="#7140FC"/>
</svg>