<svg width="36" height="35" viewBox="0 0 36 35" fill="none" xmlns="http://www.w3.org/2000/svg">
<rect x="0.282227" width="35" height="35" rx="11.25" fill="#00CD2D" fill-opacity="0.8"/>
<path fill-rule="evenodd" clip-rule="evenodd" d="M15.5322 19.75L24.5322 10.75L26.7822 13L17.7822 22L15.5322 19.75ZM13.2822 22L15.5322 19.75L11.0322 15.25L8.78223 17.5L13.2822 22Z" fill="white"/>
<path fill-rule="evenodd" clip-rule="evenodd" d="M15.5322 19.75L24.5322 10.75L26.7822 13L17.7822 22L15.5322 19.75ZM13.2822 22L15.5322 19.75L11.0322 15.25L8.78223 17.5L13.2822 22Z" fill="#00CD2D" fill-opacity="0.1"/>
<path d="M13.2822 22L15.5322 24.25L17.7822 22L15.5322 19.75L13.2822 22Z" fill="white"/>
<path d="M13.2822 22L15.5322 24.25L17.7822 22L15.5322 19.75L13.2822 22Z" fill="#00CD2D" fill-opacity="0.1"/>
</svg>