<svg width="144" height="52" viewBox="0 0 144 52" fill="none" xmlns="http://www.w3.org/2000/svg">
<rect x="1.61035" y="1.00037" width="141" height="50" rx="25" fill="#7140FC" fill-opacity="0.16"/>
<rect x="1.61035" y="1.00037" width="141" height="50" rx="25" stroke="#7140FC" stroke-width="2"/>
<path d="M47.6103 26.5004C47.6104 25.1757 47.2346 23.8781 46.5265 22.7585C45.8185 21.6389 44.8072 20.7431 43.6103 20.1754V19.0004C43.6094 17.7118 43.1937 16.4577 42.4247 15.4238C41.6557 14.3898 40.5742 13.6309 39.3404 13.2594C38.1065 12.8878 36.7859 12.9233 35.5738 13.3607C34.3617 13.7981 33.3226 14.6141 32.6103 15.6879C31.898 14.6141 30.859 13.7981 29.6469 13.3607C28.4348 12.9233 27.1141 12.8878 25.8802 13.2594C24.6464 13.6309 23.5649 14.3898 22.7959 15.4238C22.0269 16.4577 21.6112 17.7118 21.6103 19.0004V20.1754C20.4132 20.743 19.4018 21.6387 18.6936 22.7583C17.9853 23.8779 17.6094 25.1756 17.6094 26.5004C17.6094 27.8252 17.9853 29.1229 18.6936 30.2425C19.4018 31.3621 20.4132 32.2578 21.6103 32.8254V33.0004C21.6112 34.289 22.0269 35.543 22.7959 36.577C23.5649 37.611 24.6464 38.3699 25.8802 38.7414C27.1141 39.113 28.4348 39.0775 29.6469 38.6401C30.859 38.2027 31.898 37.3867 32.6103 36.3129C33.3226 37.3867 34.3617 38.2027 35.5738 38.6401C36.7859 39.0775 38.1065 39.113 39.3404 38.7414C40.5742 38.3699 41.6557 37.611 42.4247 36.577C43.1937 35.543 43.6094 34.289 43.6103 33.0004V32.8254C44.8063 32.2564 45.8167 31.3604 46.5246 30.2411C47.2325 29.1217 47.6089 27.8248 47.6103 26.5004ZM27.6103 37.0004C26.6234 36.9998 25.6716 36.6344 24.9378 35.9745C24.2041 35.3146 23.7402 34.4067 23.6353 33.4254C23.9578 33.4762 24.2838 33.5013 24.6103 33.5004H25.6103C25.8755 33.5004 26.1299 33.395 26.3174 33.2075C26.505 33.02 26.6103 32.7656 26.6103 32.5004C26.6103 32.2352 26.505 31.9808 26.3174 31.7933C26.1299 31.6058 25.8755 31.5004 25.6103 31.5004H24.6103C23.432 31.4984 22.2922 31.0803 21.3921 30.3198C20.4919 29.5594 19.8893 28.5054 19.6905 27.344C19.4917 26.1825 19.7095 24.9882 20.3054 23.9716C20.9014 22.9551 21.8372 22.1817 22.9478 21.7879C23.1421 21.7163 23.3098 21.5868 23.4283 21.417C23.5468 21.2471 23.6103 21.045 23.6103 20.8379V19.0004C23.6103 17.9395 24.0317 16.9221 24.7819 16.172C25.532 15.4218 26.5494 15.0004 27.6103 15.0004C28.6712 15.0004 29.6886 15.4218 30.4387 16.172C31.1889 16.9221 31.6103 17.9395 31.6103 19.0004V28.5379C30.5155 27.5443 29.0888 26.9959 27.6103 27.0004C27.3451 27.0004 27.0907 27.1058 26.9032 27.2933C26.7157 27.4808 26.6103 27.7352 26.6103 28.0004C26.6103 28.2656 26.7157 28.52 26.9032 28.7075C27.0907 28.895 27.3451 29.0004 27.6103 29.0004C28.6712 29.0004 29.6886 29.4218 30.4387 30.172C31.1889 30.9221 31.6103 31.9395 31.6103 33.0004C31.6103 34.0613 31.1889 35.0787 30.4387 35.8288C29.6886 36.579 28.6712 37.0004 27.6103 37.0004ZM40.6103 31.5004H39.6103C39.3451 31.5004 39.0907 31.6058 38.9032 31.7933C38.7157 31.9808 38.6103 32.2352 38.6103 32.5004C38.6103 32.7656 38.7157 33.02 38.9032 33.2075C39.0907 33.395 39.3451 33.5004 39.6103 33.5004H40.6103C40.9368 33.5013 41.2628 33.4762 41.5853 33.4254C41.5032 34.1941 41.2 34.9226 40.7125 35.5226C40.2251 36.1227 39.5741 36.5686 38.8385 36.8064C38.1029 37.0442 37.3141 37.0638 36.5676 36.8627C35.8212 36.6617 35.1489 36.2486 34.6323 35.6735C34.1156 35.0983 33.7767 34.3858 33.6566 33.6221C33.5364 32.8584 33.6401 32.0762 33.9552 31.3703C34.2703 30.6643 34.7832 30.0647 35.4319 29.6441C36.0805 29.2235 36.8372 28.9999 37.6103 29.0004C37.8755 29.0004 38.1299 28.895 38.3174 28.7075C38.505 28.52 38.6103 28.2656 38.6103 28.0004C38.6103 27.7352 38.505 27.4808 38.3174 27.2933C38.1299 27.1058 37.8755 27.0004 37.6103 27.0004C36.1319 26.9959 34.7051 27.5443 33.6103 28.5379V19.0004C33.6103 17.9395 34.0317 16.9221 34.7819 16.172C35.532 15.4218 36.5495 15.0004 37.6103 15.0004C38.6712 15.0004 39.6886 15.4218 40.4387 16.172C41.1889 16.9221 41.6103 17.9395 41.6103 19.0004V20.8379C41.6103 21.045 41.6739 21.2471 41.7923 21.417C41.9108 21.5868 42.0785 21.7163 42.2728 21.7879C43.3834 22.1817 44.3192 22.9551 44.9152 23.9716C45.5112 24.9882 45.7289 26.1825 45.5301 27.344C45.3313 28.5054 44.7287 29.5594 43.8286 30.3198C42.9284 31.0803 41.7887 31.4984 40.6103 31.5004ZM24.1103 26.0004C23.8451 26.0004 23.5907 25.895 23.4032 25.7075C23.2157 25.52 23.1103 25.2656 23.1103 25.0004C23.1103 24.7352 23.2157 24.4808 23.4032 24.2933C23.5907 24.1058 23.8451 24.0004 24.1103 24.0004C24.7723 23.9971 25.4063 23.7327 25.8745 23.2645C26.3426 22.7964 26.607 22.1624 26.6103 21.5004V20.5004C26.6103 20.2352 26.7157 19.9808 26.9032 19.7933C27.0907 19.6058 27.3451 19.5004 27.6103 19.5004C27.8755 19.5004 28.1299 19.6058 28.3174 19.7933C28.505 19.9808 28.6103 20.2352 28.6103 20.5004V21.5004C28.6103 22.6939 28.1362 23.8385 27.2923 24.6824C26.4484 25.5263 25.3038 26.0004 24.1103 26.0004ZM42.1103 25.0004C42.1103 25.2656 42.005 25.52 41.8174 25.7075C41.6299 25.895 41.3755 26.0004 41.1103 26.0004C39.9168 26.0004 38.7723 25.5263 37.9283 24.6824C37.0844 23.8385 36.6103 22.6939 36.6103 21.5004V20.5004C36.6103 20.2352 36.7157 19.9808 36.9032 19.7933C37.0907 19.6058 37.3451 19.5004 37.6103 19.5004C37.8755 19.5004 38.1299 19.6058 38.3174 19.7933C38.505 19.9808 38.6103 20.2352 38.6103 20.5004V21.5004C38.6136 22.1624 38.878 22.7964 39.3462 23.2645C39.8143 23.7327 40.4483 23.9971 41.1103 24.0004C41.3755 24.0004 41.6299 24.1058 41.8174 24.2933C42.005 24.4808 42.1103 24.7352 42.1103 25.0004Z" fill="#7140FC"/>
<path d="M68.4998 17.3204V19.5524H61.4198V24.4724H66.9398V26.7044H61.4198V34.0004H58.6838V17.3204H68.4998ZM76.7714 34.2164C75.5234 34.2164 74.3954 33.9364 73.3874 33.3764C72.3794 32.8004 71.5874 32.0004 71.0114 30.9764C70.4354 29.9364 70.1474 28.7364 70.1474 27.3764C70.1474 26.0324 70.4434 24.8404 71.0354 23.8004C71.6274 22.7604 72.4354 21.9604 73.4594 21.4004C74.4834 20.8404 75.6274 20.5604 76.8914 20.5604C78.1554 20.5604 79.2994 20.8404 80.3234 21.4004C81.3474 21.9604 82.1554 22.7604 82.7474 23.8004C83.3394 24.8404 83.6354 26.0324 83.6354 27.3764C83.6354 28.7204 83.3314 29.9124 82.7234 30.9524C82.1154 31.9924 81.2834 32.8004 80.2274 33.3764C79.1874 33.9364 78.0354 34.2164 76.7714 34.2164ZM76.7714 31.8404C77.4754 31.8404 78.1314 31.6724 78.7394 31.3364C79.3634 31.0004 79.8674 30.4964 80.2514 29.8244C80.6354 29.1524 80.8274 28.3364 80.8274 27.3764C80.8274 26.4164 80.6434 25.6084 80.2754 24.9524C79.9074 24.2804 79.4194 23.7764 78.8114 23.4404C78.2034 23.1044 77.5474 22.9364 76.8434 22.9364C76.1394 22.9364 75.4834 23.1044 74.8754 23.4404C74.2834 23.7764 73.8114 24.2804 73.4594 24.9524C73.1074 25.6084 72.9314 26.4164 72.9314 27.3764C72.9314 28.8004 73.2914 29.9044 74.0114 30.6884C74.7474 31.4564 75.6674 31.8404 76.7714 31.8404ZM85.428 27.3764C85.428 26.0164 85.7 24.8244 86.244 23.8004C86.804 22.7604 87.572 21.9604 88.548 21.4004C89.524 20.8404 90.644 20.5604 91.908 20.5604C93.508 20.5604 94.828 20.9444 95.868 21.7124C96.924 22.4644 97.636 23.5444 98.004 24.9524H95.052C94.812 24.2964 94.428 23.7844 93.9 23.4164C93.372 23.0484 92.708 22.8644 91.908 22.8644C90.788 22.8644 89.892 23.2644 89.22 24.0644C88.564 24.8484 88.236 25.9524 88.236 27.3764C88.236 28.8004 88.564 29.9124 89.22 30.7124C89.892 31.5124 90.788 31.9124 91.908 31.9124C93.492 31.9124 94.54 31.2164 95.052 29.8244H98.004C97.62 31.1684 96.9 32.2404 95.844 33.0404C94.788 33.8244 93.476 34.2164 91.908 34.2164C90.644 34.2164 89.524 33.9364 88.548 33.3764C87.572 32.8004 86.804 32.0004 86.244 30.9764C85.7 29.9364 85.428 28.7364 85.428 27.3764ZM112.707 20.7764V34.0004H109.971V32.4404C109.539 32.9844 108.971 33.4164 108.267 33.7364C107.579 34.0404 106.843 34.1924 106.059 34.1924C105.019 34.1924 104.083 33.9764 103.251 33.5444C102.435 33.1124 101.787 32.4724 101.307 31.6244C100.843 30.7764 100.611 29.7524 100.611 28.5524V20.7764H103.323V28.1444C103.323 29.3284 103.619 30.2404 104.211 30.8804C104.803 31.5044 105.611 31.8164 106.635 31.8164C107.659 31.8164 108.467 31.5044 109.059 30.8804C109.667 30.2404 109.971 29.3284 109.971 28.1444V20.7764H112.707ZM121.117 34.2164C120.077 34.2164 119.141 34.0324 118.309 33.6644C117.493 33.2804 116.845 32.7684 116.365 32.1284C115.885 31.4724 115.629 30.7444 115.597 29.9444H118.429C118.477 30.5044 118.741 30.9764 119.221 31.3604C119.717 31.7284 120.333 31.9124 121.069 31.9124C121.837 31.9124 122.429 31.7684 122.845 31.4804C123.277 31.1764 123.493 30.7924 123.493 30.3284C123.493 29.8324 123.253 29.4644 122.773 29.2244C122.309 28.9844 121.565 28.7204 120.541 28.4324C119.549 28.1604 118.741 27.8964 118.117 27.6404C117.493 27.3844 116.949 26.9924 116.485 26.4644C116.037 25.9364 115.813 25.2404 115.813 24.3764C115.813 23.6724 116.021 23.0324 116.437 22.4564C116.853 21.8644 117.445 21.4004 118.213 21.0644C118.997 20.7284 119.893 20.5604 120.901 20.5604C122.405 20.5604 123.613 20.9444 124.525 21.7124C125.453 22.4644 125.949 23.4964 126.013 24.8084H123.277C123.229 24.2164 122.989 23.7444 122.557 23.3924C122.125 23.0404 121.541 22.8644 120.805 22.8644C120.085 22.8644 119.533 23.0004 119.149 23.2724C118.765 23.5444 118.573 23.9044 118.573 24.3524C118.573 24.7044 118.701 25.0004 118.957 25.2404C119.213 25.4804 119.525 25.6724 119.893 25.8164C120.261 25.9444 120.805 26.1124 121.525 26.3204C122.485 26.5764 123.269 26.8404 123.877 27.1124C124.501 27.3684 125.037 27.7524 125.485 28.2644C125.933 28.7764 126.165 29.4564 126.181 30.3044C126.181 31.0564 125.973 31.7284 125.557 32.3204C125.141 32.9124 124.549 33.3764 123.781 33.7124C123.029 34.0484 122.141 34.2164 121.117 34.2164Z" fill="#7140FC"/>
</svg>
