<svg width="33" height="33" viewBox="0 0 33 33" fill="none" xmlns="http://www.w3.org/2000/svg">
<path d="M16.2821 3.16663C8.93406 3.16663 2.94873 9.15196 2.94873 16.5C2.94873 23.848 8.93406 29.8333 16.2821 29.8333C23.6301 29.8333 29.6154 23.848 29.6154 16.5C29.6154 9.15196 23.6301 3.16663 16.2821 3.16663ZM16.2821 5.83329C22.1889 5.83329 26.9487 10.5931 26.9487 16.5C26.9487 22.4068 22.1889 27.1666 16.2821 27.1666C10.3752 27.1666 5.6154 22.4068 5.6154 16.5C5.6154 10.5931 10.3752 5.83329 16.2821 5.83329Z" fill="#277542" fill-opacity="0.44"/>
<path d="M21.2245 11.557C21.1007 11.4332 20.9537 11.335 20.792 11.268C20.6302 11.201 20.4568 11.1665 20.2817 11.1665C20.1066 11.1665 19.9332 11.201 19.7715 11.268C19.6097 11.335 19.4627 11.4332 19.3389 11.557L16.2821 14.6138L13.2254 11.557C13.1016 11.4332 12.9546 11.335 12.7928 11.268C12.631 11.201 12.4577 11.1665 12.2826 11.1665C12.1075 11.1665 11.9341 11.201 11.7723 11.268C11.6105 11.335 11.4636 11.4332 11.3397 11.557C11.2159 11.6809 11.1177 11.8279 11.0507 11.9896C10.9837 12.1514 10.9492 12.3248 10.9492 12.4999C10.9492 12.675 10.9837 12.8484 11.0507 13.0101C11.1177 13.1719 11.2159 13.3189 11.3397 13.4427L14.3965 16.4994L11.3397 19.5562C11.2159 19.68 11.1177 19.827 11.0507 19.9888C10.9837 20.1505 10.9492 20.3239 10.9492 20.499C10.9492 20.6741 10.9837 20.8475 11.0507 21.0093C11.1177 21.171 11.2159 21.318 11.3397 21.4418C11.4636 21.5656 11.6105 21.6639 11.7723 21.7309C11.9341 21.7979 12.1075 21.8324 12.2826 21.8324C12.4577 21.8324 12.631 21.7979 12.7928 21.7309C12.9546 21.6639 13.1016 21.5656 13.2254 21.4418L16.2821 18.3851L19.3389 21.4418C19.589 21.6919 19.9281 21.8324 20.2817 21.8324C20.6353 21.8324 20.9745 21.6919 21.2245 21.4418C21.3483 21.318 21.4465 21.171 21.5136 21.0093C21.5806 20.8475 21.615 20.6741 21.615 20.499C21.615 20.3239 21.5806 20.1505 21.5136 19.9888C21.4465 19.827 21.3483 19.68 21.2245 19.5562L18.1677 16.4994L21.2245 13.4427C21.3483 13.3189 21.4465 13.1719 21.5136 13.0101C21.5806 12.8484 21.615 12.675 21.615 12.4999C21.615 12.3248 21.5806 12.1514 21.5136 11.9896C21.4465 11.8279 21.3483 11.6809 21.2245 11.557Z" fill="#277542" fill-opacity="0.44"/>
</svg>