<svg width="89" height="63" viewBox="0 0 89 63" fill="none" xmlns="http://www.w3.org/2000/svg">
<g clip-path="url(#clip0_2_1010)">
<path d="M88.8992 52.6962C87.4603 54.7855 85.3627 56.2067 83.2284 57.543C77.2187 61.3154 70.6069 62.9644 63.3931 62.4899C60.1887 62.2906 57.0385 61.6065 54.0619 60.4637C66.0736 59.9871 76.1232 55.5734 84.2198 47.0463C85.9089 48.4022 87.8504 49.4534 88.8992 51.399V52.6962Z" fill="#C8B5FF"/>
<path d="M31.5641 28.1182C31.7707 17.3516 35.4839 8.65698 42.8691 1.39437C44.1772 0.108121 45.6689 0.11465 46.9839 1.39437C52.9324 7.22491 56.6663 14.1219 57.8 22.1723C59.4982 34.1925 55.7988 44.6044 47.0619 53.4275C45.6735 54.8291 44.1772 54.8008 42.7658 53.4144C37.1071 47.9301 33.3839 40.9146 32.1103 33.3372C31.7592 31.3915 31.6904 29.4023 31.5641 28.1182Z" fill="#C8B5FF"/>
<path d="M57.008 49.4012C58.0958 47.2074 59.3029 45.0332 60.2714 42.7632C62.7958 36.7803 63.7138 30.5493 63.1883 24.1181C62.8714 20.2264 61.9743 16.3971 60.5239 12.7443C60.2944 12.1871 60.3793 11.902 60.9507 11.6822C63.6197 10.6636 66.2566 9.55803 68.9578 8.63524C70.6882 8.03891 72.1156 8.85288 72.5241 10.5701C75.8028 24.245 72.1837 36.0157 61.6667 45.882C60.4275 47.0376 58.9816 47.9909 57.623 49.0312C57.4256 49.1655 57.2203 49.2891 57.008 49.4012Z" fill="#C8B5FF"/>
<path d="M32.7501 49.5753C30.8636 48.0192 28.8693 46.5632 27.1068 44.8874C21.1583 39.2288 17.6746 32.3753 16.456 24.4903C15.7615 19.8584 16.047 15.1418 17.2959 10.6158C17.7549 8.86161 19.1319 8.02806 20.9105 8.63309C23.5359 9.52759 26.0924 10.5918 28.6903 11.569C29.4316 11.8454 29.5555 12.2067 29.2664 12.9184C27.0701 18.3376 26.2347 23.9745 26.5629 29.7484C26.9145 36.3534 28.9366 42.7813 32.4586 48.4893L32.975 49.3316L32.7501 49.5753Z" fill="#C8B5FF"/>
<path d="M11.5661 26.4512C14.1479 39.0742 21.2462 48.6329 32.8425 55.321C32.3675 55.2688 31.8901 55.2209 31.4151 55.1599C30.94 55.099 30.4512 55.0511 29.9761 54.9575C17.6997 52.5287 8.96054 45.9045 3.75866 35.0849C3.07017 33.6398 2.61118 32.0902 2.11089 30.5667C2.00766 30.2756 1.96659 29.9679 1.99008 29.6616C2.01357 29.3553 2.10114 29.0564 2.24768 28.7825C2.39422 28.5086 2.59681 28.2652 2.84362 28.0663C3.09043 27.8674 3.37653 27.7172 3.68522 27.6242C6.24096 26.8839 8.89403 26.4889 11.5661 26.4512Z" fill="#C8B5FF"/>
<path d="M57.0064 55.3512C68.5684 48.6675 75.6735 39.1045 78.3012 26.3378C80.1005 26.5554 81.8997 26.773 83.6944 27.0342C84.4259 27.1484 85.1488 27.3076 85.8585 27.5108C87.403 27.9461 88.1764 29.2128 87.7105 30.6644C83.4672 43.8686 74.1841 51.9169 60.0174 54.9377C59.0306 55.1488 58.0116 55.2185 57.0064 55.3512Z" fill="#C8B5FF"/>
<path d="M5.58766 47.0068C13.7187 55.5709 23.7636 59.9781 35.8213 60.5853C34.3984 60.9879 32.9962 61.4907 31.5481 61.778C20.3488 64.0022 10.5011 61.4994 2.09016 54.0888C0.511239 52.6981 0.497469 51.3204 2.07869 49.9145C3.19403 48.9133 4.39429 47.9884 5.58766 47.0068Z" fill="#C8B5FF"/>
</g>
<defs>
<clipPath id="clip0_2_1010">
<rect width="87.9998" height="62.1359" fill="white" transform="translate(0.899399 0.432007)"/>
</clipPath>
</defs>
</svg>