<svg width="73" height="87" viewBox="0 0 73 87" fill="none" xmlns="http://www.w3.org/2000/svg">
<g clip-path="url(#clip0_346_899)">
<path d="M60.8333 7.25H57.7917V3.625C57.7917 2.66359 57.4712 1.74156 56.9008 1.06174C56.3304 0.381919 55.5567 0 54.75 0C53.9433 0 53.1696 0.381919 52.5992 1.06174C52.0288 1.74156 51.7083 2.66359 51.7083 3.625V7.25H21.2917V3.625C21.2917 2.66359 20.9712 1.74156 20.4008 1.06174C19.8304 0.381919 19.0567 0 18.25 0C17.4433 0 16.6696 0.381919 16.0992 1.06174C15.5288 1.74156 15.2083 2.66359 15.2083 3.625V7.25H12.1667C8.93987 7.25 5.84523 8.77767 3.56353 11.497C1.28184 14.2162 0 17.9044 0 21.75L0 72.5C0 76.3456 1.28184 80.0338 3.56353 82.753C5.84523 85.4723 8.93987 87 12.1667 87H60.8333C64.0601 87 67.1548 85.4723 69.4365 82.753C71.7182 80.0338 73 76.3456 73 72.5V21.75C73 17.9044 71.7182 14.2162 69.4365 11.497C67.1548 8.77767 64.0601 7.25 60.8333 7.25ZM66.9167 72.5C66.9167 74.4228 66.2757 76.2669 65.1349 77.6265C63.9941 78.9862 62.4467 79.75 60.8333 79.75H12.1667C10.5533 79.75 9.00595 78.9862 7.8651 77.6265C6.72425 76.2669 6.08333 74.4228 6.08333 72.5V21.75C6.08333 19.8272 6.72425 17.9831 7.8651 16.6235C9.00595 15.2638 10.5533 14.5 12.1667 14.5H15.2083V18.125C15.2083 19.0864 15.5288 20.0084 16.0992 20.6883C16.6696 21.3681 17.4433 21.75 18.25 21.75C19.0567 21.75 19.8304 21.3681 20.4008 20.6883C20.9712 20.0084 21.2917 19.0864 21.2917 18.125V14.5H51.7083V18.125C51.7083 19.0864 52.0288 20.0084 52.5992 20.6883C53.1696 21.3681 53.9433 21.75 54.75 21.75C55.5567 21.75 56.3304 21.3681 56.9008 20.6883C57.4712 20.0084 57.7917 19.0864 57.7917 18.125V14.5H60.8333C62.4467 14.5 63.9941 15.2638 65.1349 16.6235C66.2757 17.9831 66.9167 19.8272 66.9167 21.75V72.5Z" fill="#C8B5FF"/>
<path d="M57.7917 25.375H15.2083C14.4016 25.375 13.628 25.7569 13.0575 26.4367C12.4871 27.1166 12.1667 28.0386 12.1667 29C12.1667 29.9614 12.4871 30.8834 13.0575 31.5633C13.628 32.2431 14.4016 32.625 15.2083 32.625H57.7917C58.5984 32.625 59.372 32.2431 59.9424 31.5633C60.5129 30.8834 60.8333 29.9614 60.8333 29C60.8333 28.0386 60.5129 27.1166 59.9424 26.4367C59.372 25.7569 58.5984 25.375 57.7917 25.375Z" fill="#C8B5FF"/>
<path d="M21.2917 43.5H15.2083C14.4016 43.5 13.628 43.8819 13.0575 44.5617C12.4871 45.2416 12.1667 46.1636 12.1667 47.125C12.1667 48.0864 12.4871 49.0084 13.0575 49.6883C13.628 50.3681 14.4016 50.75 15.2083 50.75H21.2917C22.0984 50.75 22.872 50.3681 23.4424 49.6883C24.0129 49.0084 24.3333 48.0864 24.3333 47.125C24.3333 46.1636 24.0129 45.2416 23.4424 44.5617C22.872 43.8819 22.0984 43.5 21.2917 43.5Z" fill="#C8B5FF"/>
<path d="M21.2917 61.625H15.2083C14.4016 61.625 13.628 62.0069 13.0575 62.6867C12.4871 63.3666 12.1667 64.2886 12.1667 65.25C12.1667 66.2114 12.4871 67.1334 13.0575 67.8133C13.628 68.4931 14.4016 68.875 15.2083 68.875H21.2917C22.0984 68.875 22.872 68.4931 23.4424 67.8133C24.0129 67.1334 24.3333 66.2114 24.3333 65.25C24.3333 64.2886 24.0129 63.3666 23.4424 62.6867C22.872 62.0069 22.0984 61.625 21.2917 61.625Z" fill="#C8B5FF"/>
<path d="M39.5417 43.5H33.4583C32.6516 43.5 31.878 43.8819 31.3075 44.5617C30.7371 45.2416 30.4167 46.1636 30.4167 47.125C30.4167 48.0864 30.7371 49.0084 31.3075 49.6883C31.878 50.3681 32.6516 50.75 33.4583 50.75H39.5417C40.3484 50.75 41.122 50.3681 41.6924 49.6883C42.2629 49.0084 42.5833 48.0864 42.5833 47.125C42.5833 46.1636 42.2629 45.2416 41.6924 44.5617C41.122 43.8819 40.3484 43.5 39.5417 43.5Z" fill="#C8B5FF"/>
<path d="M39.5417 61.625H33.4583C32.6516 61.625 31.878 62.0069 31.3075 62.6867C30.7371 63.3666 30.4167 64.2886 30.4167 65.25C30.4167 66.2114 30.7371 67.1334 31.3075 67.8133C31.878 68.4931 32.6516 68.875 33.4583 68.875H39.5417C40.3484 68.875 41.122 68.4931 41.6924 67.8133C42.2629 67.1334 42.5833 66.2114 42.5833 65.25C42.5833 64.2886 42.2629 63.3666 41.6924 62.6867C41.122 62.0069 40.3484 61.625 39.5417 61.625Z" fill="#C8B5FF"/>
<path d="M57.7917 43.5H51.7083C50.9016 43.5 50.128 43.8819 49.5575 44.5617C48.9871 45.2416 48.6667 46.1636 48.6667 47.125C48.6667 48.0864 48.9871 49.0084 49.5575 49.6883C50.128 50.3681 50.9016 50.75 51.7083 50.75H57.7917C58.5984 50.75 59.372 50.3681 59.9424 49.6883C60.5129 49.0084 60.8333 48.0864 60.8333 47.125C60.8333 46.1636 60.5129 45.2416 59.9424 44.5617C59.372 43.8819 58.5984 43.5 57.7917 43.5Z" fill="#C8B5FF"/>
<path d="M57.7917 61.625H51.7083C50.9016 61.625 50.128 62.0069 49.5575 62.6867C48.9871 63.3666 48.6667 64.2886 48.6667 65.25C48.6667 66.2114 48.9871 67.1334 49.5575 67.8133C50.128 68.4931 50.9016 68.875 51.7083 68.875H57.7917C58.5984 68.875 59.372 68.4931 59.9424 67.8133C60.5129 67.1334 60.8333 66.2114 60.8333 65.25C60.8333 64.2886 60.5129 63.3666 59.9424 62.6867C59.372 62.0069 58.5984 61.625 57.7917 61.625Z" fill="#C8B5FF"/>
</g>
<defs>
<clipPath id="clip0_346_899">
<rect width="73" height="87" fill="white"/>
</clipPath>
</defs>
</svg>
