<svg width="27" height="25" viewBox="0 0 27 25" fill="none" xmlns="http://www.w3.org/2000/svg">
<path d="M21.192 3.30859H5.7445C4.53077 3.30859 3.53772 4.20859 3.53772 5.30859V19.3086C3.53772 20.4086 4.53077 21.3086 5.7445 21.3086H21.192C22.4057 21.3086 23.3988 20.4086 23.3988 19.3086V5.30859C23.3988 4.20859 22.4057 3.30859 21.192 3.30859ZM14.5716 17.3086H9.05468C8.44782 17.3086 7.95129 16.8586 7.95129 16.3086C7.95129 15.7586 8.44782 15.3086 9.05468 15.3086H14.5716C15.1785 15.3086 15.675 15.7586 15.675 16.3086C15.675 16.8586 15.1785 17.3086 14.5716 17.3086ZM17.8818 13.3086H9.05468C8.44782 13.3086 7.95129 12.8586 7.95129 12.3086C7.95129 11.7586 8.44782 11.3086 9.05468 11.3086H17.8818C18.4887 11.3086 18.9852 11.7586 18.9852 12.3086C18.9852 12.8586 18.4887 13.3086 17.8818 13.3086ZM17.8818 9.30859H9.05468C8.44782 9.30859 7.95129 8.85859 7.95129 8.30859C7.95129 7.75859 8.44782 7.30859 9.05468 7.30859H17.8818C18.4887 7.30859 18.9852 7.75859 18.9852 8.30859C18.9852 8.85859 18.4887 9.30859 17.8818 9.30859Z" fill="#D6CCC6"/>
</svg>