<svg width="119" height="65" viewBox="0 0 119 65" fill="none" xmlns="http://www.w3.org/2000/svg">
<rect x="1.61035" y="1.5" width="115" height="62" rx="30.5" fill="#7140FC" fill-opacity="0.16"/>
<rect x="1.61035" y="1.5" width="115" height="62" rx="30.5" fill="white" fill-opacity="0.11"/>
<rect x="1.61035" y="1.5" width="115" height="62" rx="30.5" stroke="white" stroke-width="3"/>
<rect width="32" height="32" transform="translate(44.1104 16.5)" fill="#7140FC" fill-opacity="0.16"/>
<path d="M70.1104 22.5V42.5C70.1104 42.7652 70.005 43.0196 69.8175 43.2071C69.6299 43.3946 69.3756 43.5 69.1104 43.5H64.6104C64.3451 43.5 64.0908 43.3946 63.9032 43.2071C63.7157 43.0196 63.6104 42.7652 63.6104 42.5V22.5C63.6104 22.2348 63.7157 21.9804 63.9032 21.7929C64.0908 21.6054 64.3451 21.5 64.6104 21.5H69.1104C69.3756 21.5 69.6299 21.6054 69.8175 21.7929C70.005 21.9804 70.1104 22.2348 70.1104 22.5ZM51.1104 21.5H55.6104C55.8756 21.5 56.1299 21.6054 56.3175 21.7929C56.505 21.9804 56.6104 22.2348 56.6104 22.5V42.5C56.6104 42.7652 56.505 43.0196 56.3175 43.2071C56.1299 43.3946 55.8756 43.5 55.6104 43.5H51.1104C50.8451 43.5 50.5908 43.3946 50.4032 43.2071C50.2157 43.0196 50.1104 42.7652 50.1104 42.5V22.5C50.1104 22.2348 50.2157 21.9804 50.4032 21.7929C50.5908 21.6054 50.8451 21.5 51.1104 21.5Z" stroke="white" stroke-width="2"/>
</svg>
