<svg width="118" height="65" viewBox="0 0 118 65" fill="none" xmlns="http://www.w3.org/2000/svg">
<rect x="1" y="1" width="116" height="63" rx="31" stroke="#7140FC" stroke-width="2"/>
<path d="M70 22.5V42.5C70 42.7652 69.8946 43.0196 69.7071 43.2071C69.5196 43.3946 69.2652 43.5 69 43.5H64.5C64.2348 43.5 63.9804 43.3946 63.7929 43.2071C63.6054 43.0196 63.5 42.7652 63.5 42.5V22.5C63.5 22.2348 63.6054 21.9804 63.7929 21.7929C63.9804 21.6054 64.2348 21.5 64.5 21.5H69C69.2652 21.5 69.5196 21.6054 69.7071 21.7929C69.8946 21.9804 70 22.2348 70 22.5ZM51 21.5H55.5C55.7652 21.5 56.0196 21.6054 56.2071 21.7929C56.3946 21.9804 56.5 22.2348 56.5 22.5V42.5C56.5 42.7652 56.3946 43.0196 56.2071 43.2071C56.0196 43.3946 55.7652 43.5 55.5 43.5H51C50.7348 43.5 50.4804 43.3946 50.2929 43.2071C50.1054 43.0196 50 42.7652 50 42.5V22.5C50 22.2348 50.1054 21.9804 50.2929 21.7929C50.4804 21.6054 50.7348 21.5 51 21.5Z" stroke="#7140FC" stroke-width="2"/>
</svg>
