<svg width="119" height="65" viewBox="0 0 119 65" fill="none" xmlns="http://www.w3.org/2000/svg">
<rect x="2.43848" y="1.50037" width="115" height="62" rx="30.5" fill="#7140FC" fill-opacity="0.16"/>
<rect x="2.43848" y="1.50037" width="115" height="62" rx="30.5" stroke="#7140FC" stroke-width="3"/>
<path d="M70.9385 22.5004V42.5004C70.9385 42.7656 70.8331 43.0199 70.6456 43.2075C70.458 43.395 70.2037 43.5004 69.9385 43.5004H65.4385C65.1733 43.5004 64.9189 43.395 64.7314 43.2075C64.5438 43.0199 64.4385 42.7656 64.4385 42.5004V22.5004C64.4385 22.2352 64.5438 21.9808 64.7314 21.7933C64.9189 21.6057 65.1733 21.5004 65.4385 21.5004H69.9385C70.2037 21.5004 70.458 21.6057 70.6456 21.7933C70.8331 21.9808 70.9385 22.2352 70.9385 22.5004ZM51.9385 21.5004H56.4385C56.7037 21.5004 56.958 21.6057 57.1456 21.7933C57.3331 21.9808 57.4385 22.2352 57.4385 22.5004V42.5004C57.4385 42.7656 57.3331 43.0199 57.1456 43.2075C56.958 43.395 56.7037 43.5004 56.4385 43.5004H51.9385C51.6733 43.5004 51.4189 43.395 51.2314 43.2075C51.0438 43.0199 50.9385 42.7656 50.9385 42.5004V22.5004C50.9385 22.2351 51.0438 21.9808 51.2314 21.7933C51.4189 21.6057 51.6733 21.5004 51.9385 21.5004Z" stroke="#7140FC" stroke-width="2"/>
</svg>
