<svg width="119" height="66" viewBox="0 0 119 66" fill="none" xmlns="http://www.w3.org/2000/svg">
<rect x="1.39648" y="1.80652" width="116" height="63" rx="31" stroke="white" stroke-width="2"/>
<path d="M70.3965 23.3065V43.3065C70.3965 43.5717 70.2911 43.8261 70.1036 44.0136C69.9161 44.2012 69.6617 44.3065 69.3965 44.3065H64.8965C64.6313 44.3065 64.3769 44.2012 64.1894 44.0136C64.0018 43.8261 63.8965 43.5717 63.8965 43.3065V23.3065C63.8965 23.0413 64.0018 22.7869 64.1894 22.5994C64.3769 22.4119 64.6313 22.3065 64.8965 22.3065H69.3965C69.6617 22.3065 69.9161 22.4119 70.1036 22.5994C70.2911 22.7869 70.3965 23.0413 70.3965 23.3065ZM51.3965 22.3065H55.8965C56.1617 22.3065 56.4161 22.4119 56.6036 22.5994C56.7911 22.7869 56.8965 23.0413 56.8965 23.3065V43.3065C56.8965 43.5717 56.7911 43.8261 56.6036 44.0136C56.4161 44.2012 56.1617 44.3065 55.8965 44.3065H51.3965C51.1313 44.3065 50.8769 44.2012 50.6894 44.0136C50.5018 43.8261 50.3965 43.5717 50.3965 43.3065V23.3065C50.3965 23.0413 50.5018 22.7869 50.6894 22.5994C50.8769 22.4119 51.1313 22.3065 51.3965 22.3065Z" stroke="white" stroke-width="2"/>
</svg>
