<svg width="27" height="21" viewBox="0 0 27 21" fill="none" xmlns="http://www.w3.org/2000/svg">
<g clip-path="url(#clip0_2_992)">
<path d="M14.2865 12.1268V17.5813C14.2865 18.3389 14.5835 18.9828 15.1777 19.5131C15.7718 20.0434 16.4933 20.3086 17.342 20.3086H23.4531C24.3019 20.3086 25.0233 20.0434 25.6175 19.5131C26.2116 18.9828 26.5087 18.3389 26.5087 17.5813V7.58132C26.5087 6.59647 26.2938 5.65661 25.8641 4.76172C25.4345 3.86683 24.8536 3.09268 24.1215 2.43928C23.3895 1.78587 22.5221 1.2674 21.5195 0.883878C20.5169 0.500355 19.4639 0.308594 18.3605 0.308594H17.342C17.0662 0.308594 16.8275 0.398556 16.6259 0.57848C16.4243 0.758404 16.3235 0.971473 16.3235 1.21768V3.03587C16.3235 3.28208 16.4243 3.49515 16.6259 3.67507C16.8275 3.855 17.0662 3.94496 17.342 3.94496H18.3605C19.4851 3.94496 20.4453 4.30007 21.241 5.0103C22.0367 5.72053 22.4346 6.57753 22.4346 7.58132V8.03587C22.4346 8.41465 22.2861 8.73662 21.989 9.00178C21.6919 9.26693 21.3312 9.3995 20.9068 9.3995H17.342C16.4933 9.3995 15.7718 9.66465 15.1777 10.195C14.5835 10.7253 14.2865 11.3692 14.2865 12.1268ZM0.0272484 12.1268V17.5813C0.0272484 18.3389 0.324316 18.9828 0.918451 19.5131C1.51258 20.0434 2.23403 20.3086 3.0828 20.3086H9.19389C10.0427 20.3086 10.7641 20.0434 11.3582 19.5131C11.9524 18.9828 12.2494 18.3389 12.2494 17.5813V7.58132C12.2494 6.59647 12.0346 5.65661 11.6049 4.76172C11.1752 3.86683 10.5944 3.09268 9.8623 2.43928C9.13024 1.78587 8.26291 1.2674 7.26031 0.883878C6.2577 0.500355 5.20471 0.308594 4.10131 0.308594H3.0828C2.80695 0.308594 2.56824 0.398556 2.36665 0.57848C2.16507 0.758404 2.06428 0.971473 2.06428 1.21768V3.03587C2.06428 3.28208 2.16507 3.49515 2.36665 3.67507C2.56824 3.855 2.80695 3.94496 3.0828 3.94496H4.10131C5.22593 3.94496 6.18609 4.30007 6.9818 5.0103C7.77752 5.72053 8.17538 6.57753 8.17538 7.58132V8.03587C8.17538 8.41465 8.02684 8.73662 7.72978 9.00178C7.43271 9.26693 7.07199 9.3995 6.6476 9.3995H3.0828C2.23403 9.3995 1.51258 9.66465 0.918451 10.195C0.324316 10.7253 0.0272484 11.3692 0.0272484 12.1268Z" fill="#D9D8D8"/>
</g>
<defs>
<clipPath id="clip0_2_992">
<rect width="26.4814" height="20" fill="white" transform="matrix(-1 0 0 1 26.5087 0.308594)"/>
</clipPath>
</defs>
</svg>