<svg width="119" height="65" viewBox="0 0 119 65" fill="none" xmlns="http://www.w3.org/2000/svg">
<rect x="2.43848" y="1.50037" width="115" height="62" rx="30.5" fill="#7140FC" fill-opacity="0.16"/>
<rect x="2.43848" y="1.50037" width="115" height="62" rx="30.5" stroke="#7140FC" stroke-width="3"/>
<path d="M54.455 44.3468L54.4478 44.3512L54.4407 44.3557C54.2956 44.4476 54.1281 44.4979 53.9564 44.5011C53.7846 44.5043 53.6153 44.4603 53.4669 44.3738L53.4558 44.3673L53.4445 44.3611C53.2908 44.2768 53.1628 44.1527 53.0737 44.0017C52.9847 43.8508 52.9379 43.6786 52.9385 43.5034V43.5003V21.5003H52.9385L52.9385 21.4973C52.9379 21.322 52.9847 21.1499 53.0737 20.9989C53.1628 20.848 53.2908 20.7238 53.4445 20.6395L53.4558 20.6333L53.4669 20.6269C53.6153 20.5404 53.7846 20.4964 53.9564 20.4996C54.1281 20.5028 54.2956 20.5531 54.4407 20.645L54.4478 20.6495L54.455 20.6539L72.4543 31.6409C72.6019 31.7312 72.7239 31.8578 72.8086 32.0086L73.6804 31.5187L72.8086 32.0086C72.8931 32.1588 72.9377 32.3281 72.9385 32.5003C72.9377 32.6726 72.8931 32.8418 72.8086 32.992C72.7239 33.1429 72.6019 33.2695 72.4543 33.3597L54.455 44.3468Z" stroke="#7140FC" stroke-width="2"/>
</svg>
