<svg width="119" height="65" viewBox="0 0 119 65" fill="none" xmlns="http://www.w3.org/2000/svg">
<rect x="1.5" y="1" width="116" height="63" rx="31" stroke="white" stroke-width="2"/>
<path d="M54.0165 44.3465L54.0093 44.3508L54.0022 44.3553C53.8572 44.4473 53.6896 44.4976 53.5179 44.5008C53.3462 44.504 53.1768 44.4599 53.0284 44.3735L53.0173 44.367L53.006 44.3608C52.8524 44.2765 52.7243 44.1523 52.6352 44.0014C52.5462 43.8504 52.4995 43.6783 52.5 43.503V43.5V21.5H52.5L52.5 21.497C52.4995 21.3217 52.5462 21.1496 52.6352 20.9986C52.7243 20.8477 52.8524 20.7235 53.006 20.6392L53.0173 20.633L53.0284 20.6265C53.1768 20.5401 53.3462 20.496 53.5179 20.4992C53.6896 20.5024 53.8572 20.5527 54.0022 20.6447L54.0093 20.6492L54.0165 20.6536L72.0158 31.6406C72.1634 31.7309 72.2854 31.8575 72.3702 32.0083L73.2419 31.5183L72.3702 32.0083C72.4546 32.1585 72.4993 32.3277 72.5 32.5C72.4993 32.6723 72.4546 32.8415 72.3702 32.9917C72.2854 33.1425 72.1634 33.2691 72.0158 33.3594L54.0165 44.3465Z" stroke="white" stroke-width="2"/>
</svg>