<svg width="119" height="65" viewBox="0 0 119 65" fill="none" xmlns="http://www.w3.org/2000/svg">
<rect x="1.61035" y="1.5" width="115" height="62" rx="30.5" fill="#7140FC" fill-opacity="0.16"/>
<rect x="1.61035" y="1.5" width="115" height="62" rx="30.5" fill="white" fill-opacity="0.11"/>
<rect x="1.61035" y="1.5" width="115" height="62" rx="30.5" stroke="white" stroke-width="3"/>
<path d="M53.6268 44.3464L53.6197 44.3508L53.6126 44.3553C53.4675 44.4472 53.3 44.4975 53.1282 44.5007C52.9565 44.5039 52.7872 44.4599 52.6388 44.3734L52.6277 44.3669L52.6164 44.3607C52.4627 44.2764 52.3346 44.1523 52.2456 44.0014C52.1565 43.8504 52.1098 43.6782 52.1104 43.503V43.5V21.5H52.1104L52.1104 21.4969C52.1098 21.3217 52.1565 21.1495 52.2456 20.9986C52.3346 20.8476 52.4627 20.7235 52.6164 20.6392L52.6277 20.633L52.6388 20.6265C52.7872 20.54 52.9565 20.496 53.1282 20.4992C53.3 20.5024 53.4675 20.5527 53.6126 20.6446L53.6197 20.6491L53.6268 20.6535L71.6261 31.6406C71.7737 31.7308 71.8957 31.8574 71.9805 32.0083L72.8523 31.5183L71.9805 32.0083C72.0649 32.1585 72.1096 32.3277 72.1104 32.5C72.1096 32.6722 72.0649 32.8415 71.9805 32.9917C71.8957 33.1425 71.7737 33.2691 71.6261 33.3594L53.6268 44.3464Z" stroke="white" stroke-width="2"/>
</svg>
