<svg width="90" height="89" viewBox="0 0 90 89" fill="none" xmlns="http://www.w3.org/2000/svg">
<path d="M52.8161 7.41663H23.1494C21.1824 7.41663 19.2959 8.19802 17.905 9.58892C16.5141 10.9798 15.7327 12.8663 15.7327 14.8333V74.1666C15.7327 76.1337 16.5141 78.0201 17.905 79.411C19.2959 80.8019 21.1824 81.5833 23.1494 81.5833H67.6494C69.6164 81.5833 71.5029 80.8019 72.8938 79.411C74.2847 78.0201 75.0661 76.1337 75.0661 74.1666V29.6666L52.8161 7.41663Z" stroke="#C8B5FF" stroke-width="6" stroke-linecap="round" stroke-linejoin="round"/>
<path d="M52.8161 7.41663V29.6666H75.0661" stroke="#C8B5FF" stroke-width="6" stroke-linecap="round" stroke-linejoin="round"/>
<path d="M60.2327 48.2084H30.5661" stroke="#C8B5FF" stroke-width="6" stroke-linecap="round" stroke-linejoin="round"/>
<path d="M60.2327 63.0416H30.5661" stroke="#C8B5FF" stroke-width="6" stroke-linecap="round" stroke-linejoin="round"/>
<path d="M37.9827 33.375H34.2744H30.5661" stroke="#C8B5FF" stroke-width="6" stroke-linecap="round" stroke-linejoin="round"/>
</svg>
