<svg width="89" height="87" viewBox="0 0 89 87" fill="none" xmlns="http://www.w3.org/2000/svg">
<path d="M56.393 2.55156V4.61645C56.393 6.01253 55.2573 7.13945 53.863 7.13945H52.9775V11.1849C44.2861 9.39193 36.8213 11.1849 36.8213 11.1849V7.13945H35.9358C34.5429 7.13945 33.4044 6.01253 33.4044 4.61645V2.55156C33.4044 1.15548 34.5429 0.0489502 35.9358 0.0489502H53.8644C55.2573 0.0489502 56.393 1.15548 56.393 2.55156Z" fill="#C8B5FF"/>
<path d="M76.9809 17.3918L65.6055 9.5319C64.9043 9.04932 64.4395 9.34295 64.1934 9.61346L63.9899 9.90301L61.1491 13.9227C61.1491 13.9227 68.3198 16.6917 74.4055 23.0794L77.2628 19.0366C77.9159 18.1014 77.0675 17.4543 76.9809 17.3918Z" fill="#C8B5FF"/>
<path d="M44.9008 13.9703C24.515 13.9703 7.99165 30.3073 7.99165 50.4614C7.99165 70.6114 24.5164 86.9511 44.9008 86.9511C65.2824 86.9511 81.8072 70.6114 81.8072 50.4614C81.8072 30.3073 65.2824 13.9703 44.9008 13.9703ZM44.9008 50.4614V21.6032C44.9008 21.6032 72.3183 21.1506 74.0893 50.4614C54.3869 50.3989 44.9008 50.4614 44.9008 50.4614Z" fill="#C8B5FF"/>
</svg>
