<svg width="28" height="28" viewBox="0 0 28 28" fill="none" xmlns="http://www.w3.org/2000/svg">
<path d="M13.8388 0.400029C11.1489 0.400029 8.51953 1.19766 6.28302 2.69204C4.04651 4.18643 2.30337 6.31046 1.27401 8.79554C0.244662 11.2806 -0.0246631 14.0151 0.500096 16.6533C1.02485 19.2914 2.32013 21.7147 4.22212 23.6167C6.12412 25.5187 8.54741 26.814 11.1855 27.3387C13.8237 27.8635 16.5582 27.5941 19.0433 26.5648C21.5283 25.5354 23.6524 23.7923 25.1468 21.5558C26.6411 19.3193 27.4388 16.6899 27.4388 14C27.4402 12.2136 27.0895 10.4445 26.4065 8.79379C25.7236 7.1431 24.7219 5.64326 23.4587 4.38009C22.1955 3.11692 20.6957 2.11521 19.045 1.43227C17.3943 0.749325 15.6252 0.398556 13.8388 0.400029ZM13.8388 24.4C11.7819 24.4 9.77112 23.7901 8.06085 22.6473C6.35057 21.5045 5.01758 19.8803 4.23043 17.9799C3.44328 16.0796 3.23732 13.9885 3.63861 11.9711C4.0399 9.95369 5.0304 8.10059 6.48487 6.64612C7.93933 5.19165 9.79243 4.20115 11.8098 3.79986C13.8272 3.39858 15.9183 3.60453 17.8187 4.39168C19.719 5.17883 21.3433 6.51183 22.4861 8.2221C23.6288 9.93237 24.2388 11.9431 24.2388 14C24.2415 15.3665 23.9744 16.7202 23.4527 17.9832C22.931 19.2462 22.1651 20.3938 21.1988 21.3601C20.2325 22.3263 19.0849 23.0923 17.8219 23.614C16.5589 24.1356 15.2053 24.4028 13.8388 24.4ZM17.6788 12.16L15.4388 13.12V7.60003C15.4388 7.17568 15.2702 6.76872 14.9701 6.46866C14.6701 6.1686 14.2631 6.00003 13.8388 6.00003C13.4144 6.00003 13.0075 6.1686 12.7074 6.46866C12.4073 6.76872 12.2388 7.17568 12.2388 7.60003V15.6C12.2321 15.8694 12.2948 16.136 12.4209 16.3742C12.547 16.6124 12.7322 16.8141 12.9588 16.96C13.1813 17.1093 13.4401 17.1955 13.7077 17.2096C13.9753 17.2237 14.2418 17.1651 14.4788 17.04L18.9588 15.04C19.7588 14.64 20.1588 13.76 19.7588 12.96C19.3588 12.16 18.4788 11.76 17.6788 12.16Z" fill="#7140FC"/>
</svg>