<svg width="26" height="23" viewBox="0 0 26 23" fill="none" xmlns="http://www.w3.org/2000/svg">
<path d="M14.5372 20.9752H7.61514C6.81066 20.9744 6.03937 20.6932 5.47052 20.1933C4.90166 19.6934 4.58169 19.0156 4.58081 18.3086V4.97522C4.58169 4.26821 4.90166 3.59039 5.47052 3.09046C6.03937 2.59053 6.81066 2.30933 7.61514 2.30855H14.5372V20.9752ZM18.2353 20.9752H17.3819V2.30855H18.2353C19.0398 2.30933 19.8111 2.59053 20.3799 3.09046C20.9488 3.59039 21.2687 4.26821 21.2696 4.97522V18.3086C21.2687 19.0156 20.9488 19.6934 20.3799 20.1933C19.8111 20.6932 19.0398 20.9744 18.2353 20.9752Z" fill="#D6CCC6"/>
</svg>